<?xml version="1.0" encoding="utf-8"?>
<!-- Generator: Adobe Illustrator 23.0.1, SVG Export Plug-In . SVG Version: 6.00 Build 0)  -->
<svg version="1.0" id="Calque_1" xmlns="http://www.w3.org/2000/svg" xmlns:xlink="http://www.w3.org/1999/xlink" x="0px" y="0px"
	 width="595.3px" height="841.9px" viewBox="0 0 595.3 841.9" style="enable-background:new 0 0 595.3 841.9;" xml:space="preserve"
	>
<style type="text/css">
	.st0{fill:none;stroke:#000000;stroke-width:2;}
</style>
<g id="signature">
	<path class="st0" d="M64,175.8c7.3,0.7,13.7-4.4,19.1-9.3c15.3-13.8,30.5-30,33.8-50.4c0.3-2.1,0.5-4.5-0.9-6.2
		c-1.3-1.7-3.7-2-5.8-2c-10.5,0.1-20,6.8-25.8,15.5s-8.4,19.1-9.9,29.5c-3.4,23.4-1.1,49.3,14.4,67c5.1,5.8,13.2,10.8,20.2,7.6
		c4.6-2.1,7.1-7,8.8-11.8c5.2-14.7,5.4-31.2,0.5-46.1c-1.3-3.9-3.4-8.1-7.3-9.2c-3.4-1-7.1,0.8-9.3,3.5c-2.2,2.7-3.3,6.2-4.2,9.5
		c-4,14.4-5.8,31.5,4,42.8c2.5,2.9,6.1,5.3,9.9,5c4.3-0.4,7.4-4,9.9-7.5c10.7-15.7,15.5-35.3,13.2-54.2c5.4,23.4,16,45.5,20.7,69.1
		c6.3,31.8,1.4,65.6-13.7,94.3c-0.7,1.3-1.5,2.6-2.8,3.2c-3.1,1.4-6-2.3-7.3-5.5c-17.3-41.5-5.8-93.3,27.4-123.6
		c4.8-4.4,10.2-8.6,13.3-14.3c3.4-6.4,3.6-14.1,2.4-21.3c-0.3-2.1-0.8-4.3-2-6c-3.3-4.7-10.8-4.6-15.4-1.1
		c-4.6,3.5-6.8,9.2-8.4,14.7c-4.7,16-5.9,33.8,0.8,49c2.2,5,6.4,10.2,11.8,9.8c3.3-0.3,6-2.6,8.3-4.9c11.7-11.7,20-26.8,24.2-42.8
		c1.3-4.9,2.2-10.1,1.1-15c-1.2-4.9-4.9-9.6-9.8-10.4c-5.1-0.9-10.2,2.4-12.7,6.9c-2.6,4.5-3,9.8-2.7,15c0.5,8.1,2.7,16,6.3,23.2
		c3.3,6.4,9.8,12.9,16.6,10.6c3-1,5.2-3.6,7-6.2c5.7-8.3,8.4-18.2,12.8-27.3c4.4-9.1,11.3-17.9,21.1-20.2c7-1.7,14.4,0.2,21.4,1.9
		c10.6,2.5,21.4,4.5,32.2,3.4c15-1.5,29-9.1,40.5-18.8c11.6-9.7,21-21.7,30.4-33.5"/>
</g>
</svg>
