<?xml version="1.0" encoding="utf-8"?>
<!-- Generator: Adobe Illustrator 24.0.0, SVG Export Plug-In . SVG Version: 6.00 Build 0)  -->
<svg version="1.1" id="Calque_1" xmlns="http://www.w3.org/2000/svg" xmlns:xlink="http://www.w3.org/1999/xlink" x="0px" y="0px"
	 viewBox="0 0 328 328" style="enable-background:new 0 0 328 328;" xml:space="preserve">
<style type="text/css">
	.st0{fill:#1D1D1B;}
</style>
<path class="st0" d="M166.55,131.63c12.92,0,23.39,10.47,23.39,23.39s-10.47,23.39-23.39,23.39s-23.39-10.47-23.39-23.39
	S153.63,131.63,166.55,131.63z M164.45,15.8c-80,0-123,56-123,126.5v170h49.5l31.5-95c2.93-8.79,6.86-20.55,8.75-26.21
	c9.23,8.7,21.67,14.05,35.35,14.05c28.48,0,51.56-23.08,51.56-51.56s-23.08-51.56-51.56-51.56c-19.05,0-35.68,10.34-44.6,25.71
	c-4.43,6.43-8.03,14.17-11.01,23.08l-16,48.5l-13.38,40.92c0,0-0.62-25.92-0.62-43.92v-54c0-52.5,29-91,83.5-91
	c55,0,81.5,38.5,81.5,91v170h40.5v-170C286.45,71.8,244.95,15.8,164.45,15.8z"/>
</svg>
