<?xml version="1.0" encoding="utf-8"?>
<!-- Generator: Adobe Illustrator 22.0.1, SVG Export Plug-In . SVG Version: 6.00 Build 0)  -->
<svg version="1.1" id="Calque_1" xmlns="http://www.w3.org/2000/svg" xmlns:xlink="http://www.w3.org/1999/xlink" x="0px" y="0px"
	 viewBox="0 0 595.3 841.9" style="enable-background:new 0 0 595.3 841.9;" xml:space="preserve">
<style type="text/css">
	.st0{fill:none;stroke:#1D1D1B;stroke-width:1.4631;stroke-miterlimit:10;}
	.st1{fill:none;stroke:#1D1D1B;stroke-width:1.5847;stroke-miterlimit:10;}
	.st2{fill:none;stroke:#1D1D1B;stroke-width:1.463;stroke-miterlimit:10;}
	.st3{fill:none;stroke:#1D1D1B;stroke-width:1.5413;stroke-miterlimit:10;}
	.st4{fill:none;stroke:#1D1D1B;stroke-width:1.427;stroke-miterlimit:10;}
	.st5{fill:none;stroke:#1D1D1B;stroke-width:1.4238;stroke-miterlimit:10;}
	.st6{fill:none;stroke:#1D1D1B;stroke-width:1.4234;stroke-miterlimit:10;}
	.st7{fill:none;stroke:#1D1D1B;stroke-width:1.4247;stroke-miterlimit:10;}
	.st8{fill:none;stroke:#1D1D1B;stroke-width:1.4283;stroke-miterlimit:10;}
</style>
<line class="st0" x1="312.3" y1="370.1" x2="312.3" y2="472.9"/>
<line class="st0" x1="309.5" y1="370.1" x2="309.5" y2="472.9"/>
<line class="st0" x1="306.7" y1="370.1" x2="306.7" y2="472.9"/>
<line class="st0" x1="303.9" y1="370.1" x2="303.9" y2="472.9"/>
<line class="st0" x1="301.1" y1="370.1" x2="301.1" y2="472.9"/>
<line class="st0" x1="298.3" y1="370.1" x2="298.3" y2="472.9"/>
<path class="st0" d="M331.5,406.9c0.4,0.9,0.7,1.9,1,2.8"/>
<path class="st0" d="M334,415.4c0.1,0.9,0.2,1.9,0.3,2.8"/>
<path class="st0" d="M332.7,409.6c0.3,0.9,0.6,1.9,0.8,2.8"/>
<path class="st0" d="M334,415.4c-0.1-1-0.3-1.9-0.6-2.8"/>
<path class="st0" d="M334.4,421c0-0.9,0-1.9-0.1-2.8"/>
<path class="st0" d="M336.8,415.4c0.1,0.9,0.2,1.9,0.3,2.8"/>
<path class="st0" d="M336.3,412.6c0.2,0.9,0.4,1.9,0.5,2.8"/>
<path class="st0" d="M337.2,421c0-0.9,0-1.9-0.1-2.8"/>
<path class="st0" d="M335.5,409.6c0.3,0.9,0.5,1.9,0.7,2.8"/>
<path class="st0" d="M334.5,406.9c0.4,0.9,0.7,1.9,1,2.8"/>
<path class="st0" d="M338.5,409.6c0.3,0.9,0.5,1.9,0.7,2.8"/>
<path class="st0" d="M337.5,406.9c0.3,0.9,0.6,1.9,0.9,2.8"/>
<path class="st0" d="M340,421c0-0.9,0-1.9-0.1-2.8"/>
<path class="st0" d="M339.2,412.6c0.2,0.9,0.3,1.9,0.5,2.8"/>
<path class="st0" d="M339.9,418.1c-0.1-0.9-0.2-1.9-0.3-2.8"/>
<path class="st0" d="M340.5,406.9c0.3,0.9,0.6,1.9,0.8,2.8"/>
<path class="st0" d="M342,412.6c0.2,0.9,0.3,1.9,0.4,2.8"/>
<path class="st0" d="M342.9,421c0-0.9,0-1.9-0.1-2.8"/>
<path class="st0" d="M342.8,418.1c-0.1-0.9-0.2-1.9-0.3-2.8"/>
<path class="st0" d="M341.4,409.6c0.2,0.9,0.4,1.9,0.6,2.8"/>
<path class="st0" d="M345.5,418.1c-0.1-0.9-0.1-1.9-0.3-2.8"/>
<path class="st0" d="M345.3,415.4c-0.1-0.9-0.3-1.9-0.4-2.8"/>
<path class="st0" d="M345.7,421c0-0.9,0-1.9-0.1-2.8"/>
<path class="st0" d="M344.3,409.6c0.2,0.9,0.4,1.9,0.6,2.8"/>
<path class="st0" d="M343.5,406.9c0.3,0.9,0.5,1.9,0.8,2.8"/>
<path class="st0" d="M347.2,409.6c0.2,0.9,0.4,1.9,0.6,2.8"/>
<path class="st0" d="M348.2,415.4c-0.1-0.9-0.2-1.9-0.4-2.8"/>
<path class="st0" d="M346.5,406.9c0.3,0.9,0.5,1.9,0.7,2.8"/>
<path class="st0" d="M348.2,415.4c0.1,0.9,0.2,1.9,0.2,2.8"/>
<path class="st0" d="M348.5,421c0-0.9,0-1.9-0.1-2.8"/>
<line class="st0" x1="337.2" y1="421" x2="340" y2="421"/>
<line class="st0" x1="349.2" y1="421" x2="345.7" y2="421"/>
<line class="st0" x1="342.9" y1="421" x2="345.7" y2="421"/>
<line class="st0" x1="337.2" y1="421" x2="334.4" y2="421"/>
<line class="st0" x1="342.9" y1="421" x2="340" y2="421"/>
<line class="st0" x1="334.4" y1="421" x2="313.4" y2="421"/>
<line class="st0" x1="342.8" y1="418.1" x2="345.5" y2="418.1"/>
<line class="st0" x1="334.3" y1="418.1" x2="313.4" y2="418.1"/>
<line class="st0" x1="337" y1="418.1" x2="339.9" y2="418.1"/>
<line class="st0" x1="334.3" y1="418.1" x2="337" y2="418.1"/>
<line class="st0" x1="339.9" y1="418.1" x2="342.8" y2="418.1"/>
<line class="st0" x1="345.5" y1="418.1" x2="348.4" y2="418.1"/>
<line class="st0" x1="342.5" y1="415.4" x2="345.3" y2="415.4"/>
<line class="st0" x1="348.2" y1="415.4" x2="345.3" y2="415.4"/>
<line class="st0" x1="313.4" y1="415.4" x2="334" y2="415.4"/>
<line class="st0" x1="336.8" y1="415.4" x2="339.7" y2="415.4"/>
<line class="st0" x1="339.7" y1="415.4" x2="342.5" y2="415.4"/>
<line class="st0" x1="334" y1="415.4" x2="336.8" y2="415.4"/>
<line class="st0" x1="333.4" y1="412.6" x2="336.3" y2="412.6"/>
<line class="st0" x1="342" y1="412.6" x2="339.2" y2="412.6"/>
<line class="st0" x1="339.2" y1="412.6" x2="336.3" y2="412.6"/>
<line class="st0" x1="333.4" y1="412.6" x2="313.4" y2="412.6"/>
<line class="st0" x1="347.8" y1="412.6" x2="344.9" y2="412.6"/>
<line class="st0" x1="344.9" y1="412.6" x2="342" y2="412.6"/>
<line class="st0" x1="344.3" y1="409.6" x2="341.4" y2="409.6"/>
<line class="st0" x1="313.4" y1="409.6" x2="332.7" y2="409.6"/>
<line class="st0" x1="340.5" y1="406.9" x2="337.5" y2="406.9"/>
<line class="st0" x1="335.5" y1="409.6" x2="332.7" y2="409.6"/>
<line class="st0" x1="338.5" y1="409.6" x2="335.5" y2="409.6"/>
<line class="st0" x1="347.2" y1="409.6" x2="344.3" y2="409.6"/>
<line class="st0" x1="341.4" y1="409.6" x2="338.5" y2="409.6"/>
<line class="st0" x1="343.5" y1="406.9" x2="340.5" y2="406.9"/>
<line class="st0" x1="346.5" y1="406.9" x2="343.5" y2="406.9"/>
<line class="st0" x1="337.5" y1="406.9" x2="334.5" y2="406.9"/>
<line class="st0" x1="331.5" y1="406.9" x2="313.4" y2="406.9"/>
<line class="st0" x1="334.5" y1="406.9" x2="331.5" y2="406.9"/>
<path class="st0" d="M331.5,406.9c-5.5-13.2-18.6-22.5-33.8-22.5c-20.2,0-36.6,16.4-36.6,36.6s16.4,36.6,36.6,36.6
	c15.2,0,28.2-9.3,33.8-22.5"/>
<path class="st0" d="M334.5,406.9c-5.7-14.8-20-25.3-36.8-25.3c-21.8,0-39.4,17.6-39.4,39.4s17.6,39.4,39.4,39.4
	c16.8,0,31.1-10.5,36.8-25.3"/>
<path class="st0" d="M337.5,406.9c-5.8-16.4-21.4-28.1-39.8-28.1c-23.3,0-42.2,18.9-42.2,42.2c0,23.3,18.9,42.2,42.2,42.2
	c18.4,0,34-11.7,39.8-28.1"/>
<path class="st0" d="M340.5,406.9c-5.9-18-22.8-30.9-42.8-30.9c-24.9,0-45,20.2-45,45c0,24.9,20.2,45,45,45
	c19.9,0,36.8-13,42.8-30.9"/>
<path class="st0" d="M343.5,406.9c-6-19.5-24.2-33.8-45.7-33.8c-26.4,0-47.8,21.4-47.8,47.8s21.4,47.8,47.8,47.8
	c21.5,0,39.7-14.2,45.7-33.7"/>
<path class="st0" d="M346.5,406.9c-6.1-21.1-25.6-36.6-48.6-36.6c-28,0-50.6,22.7-50.6,50.6c0,28,22.7,50.6,50.6,50.6
	c23.1,0,42.5-15.4,48.6-36.6"/>
<line class="st0" x1="312.1" y1="385" x2="276.3" y2="385"/>
<line class="st0" x1="312.1" y1="382.1" x2="276.3" y2="382.1"/>
<line class="st0" x1="312.1" y1="379.4" x2="276.3" y2="379.4"/>
<line class="st0" x1="312.1" y1="376.6" x2="276.3" y2="376.6"/>
<line class="st0" x1="312.1" y1="373.8" x2="276.3" y2="373.8"/>
<line class="st0" x1="312.1" y1="371" x2="276.3" y2="371"/>
<line class="st1" x1="312.4" y1="472.5" x2="312.4" y2="370.5"/>
<line class="st2" x1="309.6" y1="472.5" x2="309.6" y2="370.5"/>
<line class="st2" x1="306.8" y1="370.5" x2="306.8" y2="472.5"/>
<line class="st2" x1="304" y1="472.5" x2="304" y2="370.5"/>
<line class="st2" x1="301.1" y1="370.5" x2="301.1" y2="472.5"/>
<line class="st2" x1="298.3" y1="472.5" x2="298.3" y2="370.5"/>
<line class="st1" x1="384.9" y1="472.5" x2="384.9" y2="370.5"/>
<line class="st2" x1="382.1" y1="472.5" x2="382.1" y2="370.5"/>
<line class="st2" x1="379.3" y1="370.5" x2="379.3" y2="472.5"/>
<line class="st2" x1="376.5" y1="472.5" x2="376.5" y2="370.5"/>
<line class="st2" x1="373.6" y1="370.5" x2="373.6" y2="472.5"/>
<line class="st2" x1="370.8" y1="472.5" x2="370.8" y2="370.5"/>
<line class="st3" x1="370.9" y1="447.9" x2="312.6" y2="371"/>
<line class="st4" x1="371" y1="452.6" x2="312.4" y2="375.3"/>
<line class="st5" x1="312.5" y1="380.2" x2="370.9" y2="457.2"/>
<line class="st6" x1="370.8" y1="461.8" x2="312.5" y2="384.8"/>
<line class="st7" x1="312.2" y1="389.2" x2="370.6" y2="466.3"/>
<line class="st8" x1="371.1" y1="471.5" x2="312.4" y2="394"/>
<line class="st0" x1="284" y1="472.9" x2="284" y2="370.1"/>
<line class="st0" x1="286.8" y1="472.9" x2="286.8" y2="370.1"/>
<line class="st0" x1="289.6" y1="472.9" x2="289.6" y2="370.1"/>
<line class="st0" x1="292.4" y1="472.9" x2="292.4" y2="370.1"/>
<line class="st0" x1="295.1" y1="472.9" x2="295.1" y2="370.1"/>
<line class="st0" x1="298" y1="472.9" x2="298" y2="370.1"/>
<path class="st0" d="M264.8,436.1c-0.4-0.9-0.7-1.9-1-2.8"/>
<path class="st0" d="M262.3,427.6c-0.1-0.9-0.2-1.9-0.3-2.8"/>
<path class="st0" d="M263.6,433.4c-0.3-0.9-0.6-1.9-0.8-2.8"/>
<path class="st0" d="M262.3,427.6c0.1,1,0.3,1.9,0.6,2.8"/>
<path class="st0" d="M261.9,422.1c0,0.9,0,1.9,0.1,2.8"/>
<path class="st0" d="M259.6,427.6c-0.1-0.9-0.2-1.9-0.3-2.8"/>
<path class="st0" d="M260.1,430.5c-0.2-0.9-0.4-1.9-0.5-2.8"/>
<path class="st0" d="M259.1,422.1c0,0.9,0,1.9,0.1,2.8"/>
<path class="st0" d="M260.8,433.4c-0.3-0.9-0.5-1.9-0.7-2.8"/>
<path class="st0" d="M261.8,436.1c-0.4-0.9-0.7-1.9-1-2.8"/>
<path class="st0" d="M257.8,433.4c-0.3-0.9-0.5-1.9-0.7-2.8"/>
<path class="st0" d="M258.8,436.1c-0.3-0.9-0.6-1.9-0.9-2.8"/>
<path class="st0" d="M256.3,422.1c0,0.9,0,1.9,0.1,2.8"/>
<path class="st0" d="M257.1,430.5c-0.2-0.9-0.3-1.9-0.5-2.8"/>
<path class="st0" d="M256.4,424.9c0.1,0.9,0.2,1.9,0.3,2.8"/>
<path class="st0" d="M255.8,436.1c-0.3-0.9-0.6-1.9-0.8-2.8"/>
<path class="st0" d="M254.3,430.5c-0.2-0.9-0.3-1.9-0.4-2.8"/>
<path class="st0" d="M253.4,422.1c0,0.9,0,1.9,0.1,2.8"/>
<path class="st0" d="M253.6,424.9c0.1,0.9,0.2,1.9,0.3,2.8"/>
<path class="st0" d="M254.9,433.4c-0.2-0.9-0.4-1.9-0.6-2.8"/>
<path class="st0" d="M250.8,424.9c0.1,0.9,0.1,1.9,0.3,2.8"/>
<path class="st0" d="M251.1,427.6c0.1,0.9,0.3,1.9,0.4,2.8"/>
<path class="st0" d="M250.6,422.1c0,0.9,0,1.9,0.1,2.8"/>
<path class="st0" d="M252.1,433.4c-0.2-0.9-0.4-1.9-0.6-2.8"/>
<path class="st0" d="M252.8,436.1c-0.3-0.9-0.5-1.9-0.8-2.8"/>
<path class="st0" d="M249.1,433.4c-0.2-0.9-0.4-1.9-0.6-2.8"/>
<path class="st0" d="M248.1,427.6c0.1,0.9,0.2,1.9,0.4,2.8"/>
<path class="st0" d="M249.8,436.1c-0.3-0.9-0.5-1.9-0.7-2.8"/>
<path class="st0" d="M248.1,427.6c-0.1-0.9-0.2-1.9-0.2-2.8"/>
<path class="st0" d="M247.8,422.1c0,0.9,0,1.9,0.1,2.8"/>
<line class="st0" x1="259.1" y1="422.1" x2="256.3" y2="422.1"/>
<line class="st0" x1="247.1" y1="422.1" x2="250.6" y2="422.1"/>
<line class="st0" x1="253.4" y1="422.1" x2="250.6" y2="422.1"/>
<line class="st0" x1="259.1" y1="422.1" x2="261.9" y2="422.1"/>
<line class="st0" x1="253.4" y1="422.1" x2="256.3" y2="422.1"/>
<line class="st0" x1="261.9" y1="422.1" x2="282.9" y2="422.1"/>
<line class="st0" x1="253.6" y1="424.9" x2="250.8" y2="424.9"/>
<line class="st0" x1="262.1" y1="424.9" x2="282.9" y2="424.9"/>
<line class="st0" x1="259.3" y1="424.9" x2="256.4" y2="424.9"/>
<line class="st0" x1="262.1" y1="424.9" x2="259.3" y2="424.9"/>
<line class="st0" x1="256.4" y1="424.9" x2="253.6" y2="424.9"/>
<line class="st0" x1="250.8" y1="424.9" x2="247.9" y2="424.9"/>
<line class="st0" x1="253.8" y1="427.6" x2="251.1" y2="427.6"/>
<line class="st0" x1="248.1" y1="427.6" x2="251.1" y2="427.6"/>
<line class="st0" x1="282.9" y1="427.6" x2="262.3" y2="427.6"/>
<line class="st0" x1="259.6" y1="427.6" x2="256.6" y2="427.6"/>
<line class="st0" x1="256.6" y1="427.6" x2="253.8" y2="427.6"/>
<line class="st0" x1="262.3" y1="427.6" x2="259.6" y2="427.6"/>
<line class="st0" x1="262.9" y1="430.5" x2="260.1" y2="430.5"/>
<line class="st0" x1="254.3" y1="430.5" x2="257.1" y2="430.5"/>
<line class="st0" x1="257.1" y1="430.5" x2="260.1" y2="430.5"/>
<line class="st0" x1="262.9" y1="430.5" x2="282.9" y2="430.5"/>
<line class="st0" x1="248.6" y1="430.5" x2="251.4" y2="430.5"/>
<line class="st0" x1="251.4" y1="430.5" x2="254.3" y2="430.5"/>
<line class="st0" x1="252.1" y1="433.4" x2="254.9" y2="433.4"/>
<line class="st0" x1="282.9" y1="433.4" x2="263.6" y2="433.4"/>
<line class="st0" x1="255.8" y1="436.1" x2="258.8" y2="436.1"/>
<line class="st0" x1="260.8" y1="433.4" x2="263.6" y2="433.4"/>
<line class="st0" x1="257.8" y1="433.4" x2="260.8" y2="433.4"/>
<line class="st0" x1="249.1" y1="433.4" x2="252.1" y2="433.4"/>
<line class="st0" x1="254.9" y1="433.4" x2="257.8" y2="433.4"/>
<line class="st0" x1="252.8" y1="436.1" x2="255.8" y2="436.1"/>
<line class="st0" x1="249.8" y1="436.1" x2="252.8" y2="436.1"/>
<line class="st0" x1="258.8" y1="436.1" x2="261.8" y2="436.1"/>
<line class="st0" x1="264.8" y1="436.1" x2="282.9" y2="436.1"/>
<line class="st0" x1="261.8" y1="436.1" x2="264.8" y2="436.1"/>
<path class="st0" d="M264.8,436.1c5.5,13.2,18.6,22.5,33.8,22.5c20.2,0,36.6-16.4,36.6-36.6s-16.4-36.6-36.6-36.6
	c-15.2,0-28.2,9.3-33.8,22.5"/>
<path class="st0" d="M261.8,436.1c5.7,14.8,20,25.3,36.8,25.3c21.8,0,39.4-17.6,39.4-39.4s-17.6-39.4-39.4-39.4
	c-16.8,0-31.1,10.5-36.8,25.3"/>
<path class="st0" d="M258.8,436.1c5.8,16.4,21.4,28.1,39.8,28.1c23.3,0,42.2-18.9,42.2-42.2c0-23.3-18.9-42.2-42.2-42.2
	c-18.4,0-34,11.7-39.8,28.1"/>
<path class="st0" d="M255.8,436.1c5.9,18,22.8,30.9,42.8,30.9c24.9,0,45-20.2,45-45c0-24.9-20.2-45-45-45c-19.9,0-36.8,13-42.8,30.9
	"/>
<path class="st0" d="M252.8,436.1c6,19.5,24.2,33.8,45.7,33.8c26.4,0,47.8-21.4,47.8-47.8s-21.4-47.8-47.8-47.8
	c-21.5,0-39.7,14.2-45.7,33.7"/>
<path class="st0" d="M249.8,436.1c6.1,21.1,25.6,36.6,48.6,36.6c28,0,50.6-22.7,50.6-50.6c0-28-22.7-50.6-50.6-50.6
	c-23.1,0-42.5,15.4-48.6,36.6"/>
<line class="st0" x1="284.1" y1="458.1" x2="320" y2="458.1"/>
<line class="st0" x1="284.1" y1="460.9" x2="320" y2="460.9"/>
<line class="st0" x1="284.1" y1="463.6" x2="320" y2="463.6"/>
<line class="st0" x1="284.1" y1="466.5" x2="320" y2="466.5"/>
<line class="st0" x1="284.1" y1="469.3" x2="320" y2="469.3"/>
<line class="st0" x1="284.1" y1="472.1" x2="320" y2="472.1"/>
<line class="st1" x1="283.9" y1="370.5" x2="283.9" y2="472.5"/>
<line class="st2" x1="286.7" y1="370.5" x2="286.7" y2="472.5"/>
<line class="st2" x1="289.5" y1="472.5" x2="289.5" y2="370.5"/>
<line class="st2" x1="292.3" y1="370.5" x2="292.3" y2="472.5"/>
<line class="st2" x1="295.2" y1="472.5" x2="295.2" y2="370.5"/>
<line class="st2" x1="298" y1="370.5" x2="298" y2="472.5"/>
<line class="st1" x1="211.4" y1="370.5" x2="211.4" y2="472.5"/>
<line class="st2" x1="214.2" y1="370.5" x2="214.2" y2="472.5"/>
<line class="st2" x1="217" y1="472.5" x2="217" y2="370.5"/>
<line class="st2" x1="219.8" y1="370.5" x2="219.8" y2="472.5"/>
<line class="st2" x1="222.7" y1="472.5" x2="222.7" y2="370.5"/>
<line class="st2" x1="225.5" y1="370.5" x2="225.5" y2="472.5"/>
<line class="st3" x1="225.4" y1="395.1" x2="283.7" y2="472"/>
<line class="st4" x1="225.3" y1="390.4" x2="283.9" y2="467.7"/>
<line class="st5" x1="283.8" y1="462.8" x2="225.4" y2="385.8"/>
<line class="st6" x1="225.5" y1="381.2" x2="283.8" y2="458.2"/>
<line class="st7" x1="284.1" y1="453.8" x2="225.7" y2="376.7"/>
<line class="st8" x1="225.2" y1="371.5" x2="283.9" y2="449"/>
</svg>
