<?xml version="1.0" encoding="utf-8"?>
<!-- Generator: Adobe Illustrator 22.0.1, SVG Export Plug-In . SVG Version: 6.00 Build 0)  -->
<svg version="1.1" id="Calque_1" xmlns="http://www.w3.org/2000/svg" xmlns:xlink="http://www.w3.org/1999/xlink" x="0px" y="0px"
	 viewBox="0 0 595.3 841.9" style="enable-background:new 0 0 595.3 841.9;" xml:space="preserve">
<style type="text/css">
	.st0{fill:none;stroke:#1D1D1B;stroke-width:1.4631;stroke-miterlimit:10;}
	.st1{fill:none;stroke:#1D1D1B;stroke-width:1.5847;stroke-miterlimit:10;}
	.st2{fill:none;stroke:#1D1D1B;stroke-width:1.463;stroke-miterlimit:10;}
	.st3{fill:none;stroke:#1D1D1B;stroke-width:1.5413;stroke-miterlimit:10;}
	.st4{fill:none;stroke:#1D1D1B;stroke-width:1.427;stroke-miterlimit:10;}
	.st5{fill:none;stroke:#1D1D1B;stroke-width:1.4238;stroke-miterlimit:10;}
	.st6{fill:none;stroke:#1D1D1B;stroke-width:1.4234;stroke-miterlimit:10;}
	.st7{fill:none;stroke:#1D1D1B;stroke-width:1.4247;stroke-miterlimit:10;}
	.st8{fill:none;stroke:#1D1D1B;stroke-width:1.4283;stroke-miterlimit:10;}
</style>
<line class="st0" x1="337.3" y1="370.1" x2="337.3" y2="472.9"/>
<line class="st0" x1="334.5" y1="370.1" x2="334.5" y2="472.9"/>
<line class="st0" x1="331.7" y1="370.1" x2="331.7" y2="472.9"/>
<line class="st0" x1="328.9" y1="370.1" x2="328.9" y2="472.9"/>
<line class="st0" x1="326.1" y1="370.1" x2="326.1" y2="472.9"/>
<line class="st0" x1="323.3" y1="370.1" x2="323.3" y2="472.9"/>
<path class="st0" d="M548.5,406.9c0.4,0.9,0.7,1.9,1,2.8"/>
<path class="st0" d="M551,415.4c0.1,0.9,0.2,1.9,0.3,2.8"/>
<path class="st0" d="M549.7,409.6c0.3,0.9,0.6,1.9,0.8,2.8"/>
<path class="st0" d="M551,415.4c-0.1-1-0.3-1.9-0.6-2.8"/>
<path class="st0" d="M551.4,421c0-0.9,0-1.9-0.1-2.8"/>
<path class="st0" d="M553.8,415.4c0.1,0.9,0.2,1.9,0.3,2.8"/>
<path class="st0" d="M553.3,412.6c0.2,0.9,0.4,1.9,0.5,2.8"/>
<path class="st0" d="M554.2,421c0-0.9,0-1.9-0.1-2.8"/>
<path class="st0" d="M552.5,409.6c0.3,0.9,0.5,1.9,0.7,2.8"/>
<path class="st0" d="M551.5,406.9c0.4,0.9,0.7,1.9,1,2.8"/>
<path class="st0" d="M555.5,409.6c0.3,0.9,0.5,1.9,0.7,2.8"/>
<path class="st0" d="M554.5,406.9c0.3,0.9,0.6,1.9,0.9,2.8"/>
<path class="st0" d="M557,421c0-0.9,0-1.9-0.1-2.8"/>
<path class="st0" d="M556.2,412.6c0.2,0.9,0.3,1.9,0.5,2.8"/>
<path class="st0" d="M556.9,418.1c-0.1-0.9-0.2-1.9-0.3-2.8"/>
<path class="st0" d="M557.5,406.9c0.3,0.9,0.6,1.9,0.8,2.8"/>
<path class="st0" d="M559,412.6c0.2,0.9,0.3,1.9,0.4,2.8"/>
<path class="st0" d="M559.9,421c0-0.9,0-1.9-0.1-2.8"/>
<path class="st0" d="M559.8,418.1c-0.1-0.9-0.2-1.9-0.3-2.8"/>
<path class="st0" d="M558.4,409.6c0.2,0.9,0.4,1.9,0.6,2.8"/>
<path class="st0" d="M562.5,418.1c-0.1-0.9-0.1-1.9-0.3-2.8"/>
<path class="st0" d="M562.3,415.4c-0.1-0.9-0.3-1.9-0.4-2.8"/>
<path class="st0" d="M562.7,421c0-0.9,0-1.9-0.1-2.8"/>
<path class="st0" d="M561.3,409.6c0.2,0.9,0.4,1.9,0.6,2.8"/>
<path class="st0" d="M560.5,406.9c0.3,0.9,0.5,1.9,0.8,2.8"/>
<path class="st0" d="M564.2,409.6c0.2,0.9,0.4,1.9,0.6,2.8"/>
<path class="st0" d="M565.2,415.4c-0.1-0.9-0.2-1.9-0.4-2.8"/>
<path class="st0" d="M563.5,406.9c0.3,0.9,0.5,1.9,0.7,2.8"/>
<path class="st0" d="M565.2,415.4c0.1,0.9,0.2,1.9,0.2,2.8"/>
<path class="st0" d="M565.5,421c0-0.9,0-1.9-0.1-2.8"/>
<line class="st0" x1="554.2" y1="421" x2="557" y2="421"/>
<line class="st0" x1="566.2" y1="421" x2="562.7" y2="421"/>
<line class="st0" x1="559.9" y1="421" x2="562.7" y2="421"/>
<line class="st0" x1="554.2" y1="421" x2="551.4" y2="421"/>
<line class="st0" x1="559.9" y1="421" x2="557" y2="421"/>
<line class="st0" x1="551.4" y1="421" x2="530.4" y2="421"/>
<line class="st0" x1="559.8" y1="418.1" x2="562.5" y2="418.1"/>
<line class="st0" x1="551.3" y1="418.1" x2="530.4" y2="418.1"/>
<line class="st0" x1="554" y1="418.1" x2="556.9" y2="418.1"/>
<line class="st0" x1="551.3" y1="418.1" x2="554" y2="418.1"/>
<line class="st0" x1="556.9" y1="418.1" x2="559.8" y2="418.1"/>
<line class="st0" x1="562.5" y1="418.1" x2="565.4" y2="418.1"/>
<line class="st0" x1="559.5" y1="415.4" x2="562.3" y2="415.4"/>
<line class="st0" x1="565.2" y1="415.4" x2="562.3" y2="415.4"/>
<line class="st0" x1="530.4" y1="415.4" x2="551" y2="415.4"/>
<line class="st0" x1="553.8" y1="415.4" x2="556.7" y2="415.4"/>
<line class="st0" x1="556.7" y1="415.4" x2="559.5" y2="415.4"/>
<line class="st0" x1="551" y1="415.4" x2="553.8" y2="415.4"/>
<line class="st0" x1="550.4" y1="412.6" x2="553.3" y2="412.6"/>
<line class="st0" x1="559" y1="412.6" x2="556.2" y2="412.6"/>
<line class="st0" x1="556.2" y1="412.6" x2="553.3" y2="412.6"/>
<line class="st0" x1="550.4" y1="412.6" x2="530.4" y2="412.6"/>
<line class="st0" x1="564.8" y1="412.6" x2="561.9" y2="412.6"/>
<line class="st0" x1="561.9" y1="412.6" x2="559" y2="412.6"/>
<line class="st0" x1="561.3" y1="409.6" x2="558.4" y2="409.6"/>
<line class="st0" x1="530.4" y1="409.6" x2="549.7" y2="409.6"/>
<line class="st0" x1="557.5" y1="406.9" x2="554.5" y2="406.9"/>
<line class="st0" x1="552.5" y1="409.6" x2="549.7" y2="409.6"/>
<line class="st0" x1="555.5" y1="409.6" x2="552.5" y2="409.6"/>
<line class="st0" x1="564.2" y1="409.6" x2="561.3" y2="409.6"/>
<line class="st0" x1="558.4" y1="409.6" x2="555.5" y2="409.6"/>
<line class="st0" x1="560.5" y1="406.9" x2="557.5" y2="406.9"/>
<line class="st0" x1="563.5" y1="406.9" x2="560.5" y2="406.9"/>
<line class="st0" x1="554.5" y1="406.9" x2="551.5" y2="406.9"/>
<line class="st0" x1="548.5" y1="406.9" x2="530.4" y2="406.9"/>
<line class="st0" x1="551.5" y1="406.9" x2="548.5" y2="406.9"/>
<path class="st0" d="M548.5,406.9c-5.5-13.2-18.6-22.5-33.8-22.5c-20.2,0-36.6,16.4-36.6,36.6s16.4,36.6,36.6,36.6
	c15.2,0,28.2-9.3,33.8-22.5"/>
<path class="st0" d="M551.5,406.9c-5.7-14.8-20-25.3-36.8-25.3c-21.8,0-39.4,17.6-39.4,39.4c0,21.8,17.6,39.4,39.4,39.4
	c16.8,0,31.1-10.5,36.8-25.3"/>
<path class="st0" d="M554.5,406.9c-5.8-16.4-21.4-28.1-39.8-28.1c-23.3,0-42.2,18.9-42.2,42.2c0,23.3,18.9,42.2,42.2,42.2
	c18.4,0,34-11.7,39.8-28.1"/>
<path class="st0" d="M557.5,406.9c-5.9-18-22.8-30.9-42.8-30.9c-24.9,0-45,20.2-45,45c0,24.9,20.2,45,45,45
	c19.9,0,36.8-13,42.8-30.9"/>
<path class="st0" d="M560.5,406.9c-6-19.5-24.2-33.8-45.7-33.8c-26.4,0-47.8,21.4-47.8,47.8s21.4,47.8,47.8,47.8
	c21.5,0,39.7-14.2,45.7-33.7"/>
<path class="st0" d="M563.5,406.9c-6.1-21.1-25.6-36.6-48.6-36.6c-28,0-50.6,22.7-50.6,50.6c0,28,22.7,50.6,50.6,50.6
	c23.1,0,42.5-15.4,48.6-36.6"/>
<line class="st0" x1="337.1" y1="385" x2="301.3" y2="385"/>
<line class="st0" x1="337.1" y1="382.1" x2="301.3" y2="382.1"/>
<line class="st0" x1="337.1" y1="379.4" x2="301.3" y2="379.4"/>
<line class="st0" x1="337.1" y1="376.6" x2="301.3" y2="376.6"/>
<line class="st0" x1="337.1" y1="373.8" x2="301.3" y2="373.8"/>
<line class="st0" x1="337.1" y1="371" x2="301.3" y2="371"/>
<line class="st1" x1="374.4" y1="472.5" x2="374.4" y2="370.5"/>
<line class="st2" x1="371.6" y1="472.5" x2="371.6" y2="370.5"/>
<line class="st2" x1="368.8" y1="370.5" x2="368.8" y2="472.5"/>
<line class="st2" x1="366" y1="472.5" x2="366" y2="370.5"/>
<line class="st2" x1="363.1" y1="370.5" x2="363.1" y2="472.5"/>
<line class="st2" x1="360.3" y1="472.5" x2="360.3" y2="370.5"/>
<line class="st1" x1="446.9" y1="472.5" x2="446.9" y2="370.5"/>
<line class="st2" x1="444.1" y1="472.5" x2="444.1" y2="370.5"/>
<line class="st2" x1="441.3" y1="370.5" x2="441.3" y2="472.5"/>
<line class="st2" x1="438.5" y1="472.5" x2="438.5" y2="370.5"/>
<line class="st2" x1="435.6" y1="370.5" x2="435.6" y2="472.5"/>
<line class="st2" x1="432.8" y1="472.5" x2="432.8" y2="370.5"/>
<line class="st3" x1="432.9" y1="447.9" x2="374.6" y2="371"/>
<line class="st4" x1="433" y1="452.6" x2="374.4" y2="375.3"/>
<line class="st5" x1="374.5" y1="380.2" x2="432.9" y2="457.2"/>
<line class="st6" x1="432.8" y1="461.8" x2="374.5" y2="384.8"/>
<line class="st7" x1="374.2" y1="389.2" x2="432.6" y2="466.3"/>
<line class="st8" x1="433.1" y1="471.5" x2="374.4" y2="394"/>
<line class="st0" x1="258" y1="472.9" x2="258" y2="370.1"/>
<line class="st0" x1="260.8" y1="472.9" x2="260.8" y2="370.1"/>
<line class="st0" x1="263.6" y1="472.9" x2="263.6" y2="370.1"/>
<line class="st0" x1="266.4" y1="472.9" x2="266.4" y2="370.1"/>
<line class="st0" x1="269.1" y1="472.9" x2="269.1" y2="370.1"/>
<line class="st0" x1="272" y1="472.9" x2="272" y2="370.1"/>
<path class="st0" d="M46.8,436.1c-0.4-0.9-0.7-1.9-1-2.8"/>
<path class="st0" d="M44.3,427.6c-0.1-0.9-0.2-1.9-0.3-2.8"/>
<path class="st0" d="M45.6,433.4c-0.3-0.9-0.6-1.9-0.8-2.8"/>
<path class="st0" d="M44.3,427.6c0.1,1,0.3,1.9,0.6,2.8"/>
<path class="st0" d="M43.9,422.1c0,0.9,0,1.9,0.1,2.8"/>
<path class="st0" d="M41.6,427.6c-0.1-0.9-0.2-1.9-0.3-2.8"/>
<path class="st0" d="M42.1,430.5c-0.2-0.9-0.4-1.9-0.5-2.8"/>
<path class="st0" d="M41.1,422.1c0,0.9,0,1.9,0.1,2.8"/>
<path class="st0" d="M42.8,433.4c-0.3-0.9-0.5-1.9-0.7-2.8"/>
<path class="st0" d="M43.8,436.1c-0.4-0.9-0.7-1.9-1-2.8"/>
<path class="st0" d="M39.8,433.4c-0.3-0.9-0.5-1.9-0.7-2.8"/>
<path class="st0" d="M40.8,436.1c-0.3-0.9-0.6-1.9-0.9-2.8"/>
<path class="st0" d="M38.3,422.1c0,0.9,0,1.9,0.1,2.8"/>
<path class="st0" d="M39.1,430.5c-0.2-0.9-0.3-1.9-0.5-2.8"/>
<path class="st0" d="M38.4,424.9c0.1,0.9,0.2,1.9,0.3,2.8"/>
<path class="st0" d="M37.8,436.1c-0.3-0.9-0.6-1.9-0.8-2.8"/>
<path class="st0" d="M36.3,430.5c-0.2-0.9-0.3-1.9-0.4-2.8"/>
<path class="st0" d="M35.4,422.1c0,0.9,0,1.9,0.1,2.8"/>
<path class="st0" d="M35.6,424.9c0.1,0.9,0.2,1.9,0.3,2.8"/>
<path class="st0" d="M36.9,433.4c-0.2-0.9-0.4-1.9-0.6-2.8"/>
<path class="st0" d="M32.8,424.9c0.1,0.9,0.1,1.9,0.3,2.8"/>
<path class="st0" d="M33.1,427.6c0.1,0.9,0.3,1.9,0.4,2.8"/>
<path class="st0" d="M32.6,422.1c0,0.9,0,1.9,0.1,2.8"/>
<path class="st0" d="M34.1,433.4c-0.2-0.9-0.4-1.9-0.6-2.8"/>
<path class="st0" d="M34.8,436.1c-0.3-0.9-0.5-1.9-0.8-2.8"/>
<path class="st0" d="M31.1,433.4c-0.2-0.9-0.4-1.9-0.6-2.8"/>
<path class="st0" d="M30.1,427.6c0.1,0.9,0.2,1.9,0.4,2.8"/>
<path class="st0" d="M31.8,436.1c-0.3-0.9-0.5-1.9-0.7-2.8"/>
<path class="st0" d="M30.1,427.6c-0.1-0.9-0.2-1.9-0.2-2.8"/>
<path class="st0" d="M29.8,422.1c0,0.9,0,1.9,0.1,2.8"/>
<line class="st0" x1="41.1" y1="422.1" x2="38.3" y2="422.1"/>
<line class="st0" x1="29.1" y1="422.1" x2="32.6" y2="422.1"/>
<line class="st0" x1="35.4" y1="422.1" x2="32.6" y2="422.1"/>
<line class="st0" x1="41.1" y1="422.1" x2="43.9" y2="422.1"/>
<line class="st0" x1="35.4" y1="422.1" x2="38.3" y2="422.1"/>
<line class="st0" x1="43.9" y1="422.1" x2="64.9" y2="422.1"/>
<line class="st0" x1="35.6" y1="424.9" x2="32.8" y2="424.9"/>
<line class="st0" x1="44.1" y1="424.9" x2="64.9" y2="424.9"/>
<line class="st0" x1="41.3" y1="424.9" x2="38.4" y2="424.9"/>
<line class="st0" x1="44.1" y1="424.9" x2="41.3" y2="424.9"/>
<line class="st0" x1="38.4" y1="424.9" x2="35.6" y2="424.9"/>
<line class="st0" x1="32.8" y1="424.9" x2="29.9" y2="424.9"/>
<line class="st0" x1="35.8" y1="427.6" x2="33.1" y2="427.6"/>
<line class="st0" x1="30.1" y1="427.6" x2="33.1" y2="427.6"/>
<line class="st0" x1="64.9" y1="427.6" x2="44.3" y2="427.6"/>
<line class="st0" x1="41.6" y1="427.6" x2="38.6" y2="427.6"/>
<line class="st0" x1="38.6" y1="427.6" x2="35.8" y2="427.6"/>
<line class="st0" x1="44.3" y1="427.6" x2="41.6" y2="427.6"/>
<line class="st0" x1="44.9" y1="430.5" x2="42.1" y2="430.5"/>
<line class="st0" x1="36.3" y1="430.5" x2="39.1" y2="430.5"/>
<line class="st0" x1="39.1" y1="430.5" x2="42.1" y2="430.5"/>
<line class="st0" x1="44.9" y1="430.5" x2="64.9" y2="430.5"/>
<line class="st0" x1="30.6" y1="430.5" x2="33.4" y2="430.5"/>
<line class="st0" x1="33.4" y1="430.5" x2="36.3" y2="430.5"/>
<line class="st0" x1="34.1" y1="433.4" x2="36.9" y2="433.4"/>
<line class="st0" x1="64.9" y1="433.4" x2="45.6" y2="433.4"/>
<line class="st0" x1="37.8" y1="436.1" x2="40.8" y2="436.1"/>
<line class="st0" x1="42.8" y1="433.4" x2="45.6" y2="433.4"/>
<line class="st0" x1="39.8" y1="433.4" x2="42.8" y2="433.4"/>
<line class="st0" x1="31.1" y1="433.4" x2="34.1" y2="433.4"/>
<line class="st0" x1="36.9" y1="433.4" x2="39.8" y2="433.4"/>
<line class="st0" x1="34.8" y1="436.1" x2="37.8" y2="436.1"/>
<line class="st0" x1="31.8" y1="436.1" x2="34.8" y2="436.1"/>
<line class="st0" x1="40.8" y1="436.1" x2="43.8" y2="436.1"/>
<line class="st0" x1="46.8" y1="436.1" x2="64.9" y2="436.1"/>
<line class="st0" x1="43.8" y1="436.1" x2="46.8" y2="436.1"/>
<path class="st0" d="M46.8,436.1c5.5,13.2,18.6,22.5,33.8,22.5c20.2,0,36.6-16.4,36.6-36.6c0-20.2-16.4-36.6-36.6-36.6
	c-15.2,0-28.2,9.3-33.8,22.5"/>
<path class="st0" d="M43.8,436.1c5.7,14.8,20,25.3,36.8,25.3c21.8,0,39.4-17.6,39.4-39.4c0-21.8-17.6-39.4-39.4-39.4
	c-16.8,0-31.1,10.5-36.8,25.3"/>
<path class="st0" d="M40.8,436.1c5.8,16.4,21.4,28.1,39.8,28.1c23.3,0,42.2-18.9,42.2-42.2c0-23.3-18.9-42.2-42.2-42.2
	c-18.4,0-34,11.7-39.8,28.1"/>
<path class="st0" d="M37.8,436.1c5.9,18,22.8,30.9,42.8,30.9c24.9,0,45-20.2,45-45c0-24.9-20.2-45-45-45c-19.9,0-36.8,13-42.8,30.9"
	/>
<path class="st0" d="M34.8,436.1c6,19.5,24.2,33.8,45.7,33.8c26.4,0,47.8-21.4,47.8-47.8c0-26.4-21.4-47.8-47.8-47.8
	c-21.5,0-39.7,14.2-45.7,33.7"/>
<path class="st0" d="M31.8,436.1c6.1,21.1,25.6,36.6,48.6,36.6c28,0,50.6-22.7,50.6-50.6c0-28-22.7-50.6-50.6-50.6
	c-23.1,0-42.5,15.4-48.6,36.6"/>
<line class="st0" x1="258.1" y1="458.1" x2="294" y2="458.1"/>
<line class="st0" x1="258.1" y1="460.9" x2="294" y2="460.9"/>
<line class="st0" x1="258.1" y1="463.6" x2="294" y2="463.6"/>
<line class="st0" x1="258.1" y1="466.5" x2="294" y2="466.5"/>
<line class="st0" x1="258.1" y1="469.3" x2="294" y2="469.3"/>
<line class="st0" x1="258.1" y1="472.1" x2="294" y2="472.1"/>
<line class="st1" x1="220.9" y1="370.5" x2="220.9" y2="472.5"/>
<line class="st2" x1="223.7" y1="370.5" x2="223.7" y2="472.5"/>
<line class="st2" x1="226.5" y1="472.5" x2="226.5" y2="370.5"/>
<line class="st2" x1="229.3" y1="370.5" x2="229.3" y2="472.5"/>
<line class="st2" x1="232.2" y1="472.5" x2="232.2" y2="370.5"/>
<line class="st2" x1="235" y1="370.5" x2="235" y2="472.5"/>
<line class="st1" x1="148.4" y1="370.5" x2="148.4" y2="472.5"/>
<line class="st2" x1="151.2" y1="370.5" x2="151.2" y2="472.5"/>
<line class="st2" x1="154" y1="472.5" x2="154" y2="370.5"/>
<line class="st2" x1="156.8" y1="370.5" x2="156.8" y2="472.5"/>
<line class="st2" x1="159.7" y1="472.5" x2="159.7" y2="370.5"/>
<line class="st2" x1="162.5" y1="370.5" x2="162.5" y2="472.5"/>
<line class="st3" x1="162.4" y1="395.1" x2="220.7" y2="472"/>
<line class="st4" x1="162.3" y1="390.4" x2="220.9" y2="467.7"/>
<line class="st5" x1="220.8" y1="462.8" x2="162.4" y2="385.8"/>
<line class="st6" x1="162.5" y1="381.2" x2="220.8" y2="458.2"/>
<line class="st7" x1="221.1" y1="453.8" x2="162.7" y2="376.7"/>
<line class="st8" x1="162.2" y1="371.5" x2="220.9" y2="449"/>
</svg>
