<?xml version="1.0" encoding="utf-8"?>
<!-- Generator: Adobe Illustrator 22.0.1, SVG Export Plug-In . SVG Version: 6.00 Build 0)  -->
<svg version="1.1" id="Calque_1" xmlns="http://www.w3.org/2000/svg" xmlns:xlink="http://www.w3.org/1999/xlink" x="0px" y="0px"
	 viewBox="0 0 595.3 841.9" style="enable-background:new 0 0 595.3 841.9;" xml:space="preserve">
<path d="M273.7,50.1c0,20.3-12.4,31.1-27.5,31.1c-15.6,0-26.6-12.1-26.6-30c0-18.8,11.7-31,27.5-31
	C263.3,20.2,273.7,32.5,273.7,50.1z"/>
<path d="M180.9,21.1h7.6v52.7h25.3v6.4h-32.9V21.1z"/>
<path d="M139.5,21.1h7.6v52.7h25.3v6.4h-32.9V21.1z"/>
<path d="M126.9,52.5h-23v21.3h25.6v6.4H96.3V21.1h31.9v6.4h-24.3v18.7h23C126.9,46.2,126.9,52.5,126.9,52.5z"/>
<path d="M46.7,21.1v24.7h28.6V21.1H83v59.1h-7.7V52.5H46.7v27.7h-7.6V21.1H46.7z"/>
</svg>
