<?xml version="1.0" encoding="utf-8"?>
<!-- Generator: Adobe Illustrator 19.2.1, SVG Export Plug-In . SVG Version: 6.00 Build 0)  -->
<svg version="1.1" id="Calque_1" xmlns="http://www.w3.org/2000/svg" xmlns:xlink="http://www.w3.org/1999/xlink" x="0px" y="0px"
	 viewBox="0 0 595.3 841.9" style="enable-background:new 0 0 595.3 841.9;" xml:space="preserve">
<path d="M271.5,43c0,20.3-12.4,31.1-27.5,31.1c-15.6,0-26.6-12.1-26.6-30c0-18.8,11.2-37.6,27-37.6C260.6,6.6,271.5,25.5,271.5,43z"
	/>
<path d="M153.7,19.9L201,3.6l-15,45.7l34.1,17.6v6.4l-46.5-16.3L153.7,19.9z"/>
<path d="M128.6,13.1l21.4,9.4l3.5,33l25.3,11.3l27.3,36.4l-60.2-40.3L128.6,13.1z"/>
<path d="M132.6,43.7l-19.8,10.2l-2.5,12.9l25.6-11.6l2.4,9.7l-54.8,59.9L104.2,5.4l19.8,8.8l3.3,8.4l-9.9,2.7l-1.3,7l13.3,2.3
	L132.6,43.7z"/>
<path d="M53.1,14.1l7.6,16.1L73,29.6l8.7-15.4l16.7-5.6l-9,64.7h-7.7L76,48.9l-13-0.7l-9.9,25h-7.6L16.7,3.6L53.1,14.1z"/>
</svg>
