<?xml version="1.0" encoding="utf-8"?>
<!-- Generator: Adobe Illustrator 22.0.1, SVG Export Plug-In . SVG Version: 6.00 Build 0)  -->
<svg version="1.1" id="Calque_1" xmlns="http://www.w3.org/2000/svg" xmlns:xlink="http://www.w3.org/1999/xlink" x="0px" y="0px"
	 viewBox="0 0 841.9 595.3" style="enable-background:new 0 0 841.9 595.3;" xml:space="preserve">
<style type="text/css">
	.st0{fill:none;stroke:#000000;stroke-width:2.08;stroke-miterlimit:10;}
	.st1{fill:none;stroke:#000000;stroke-width:1.9725;stroke-miterlimit:10;}
	.st2{fill:none;stroke:#000000;stroke-width:2.2683;stroke-miterlimit:10;}
</style>
<path class="st0" d="M84.3,319.9c-0.5-1.3-1-2.6-1.5-4"/>
<path class="st0" d="M80.9,307.9c-0.2-1.3-0.3-2.7-0.4-4"/>
<path class="st0" d="M82.8,315.9c-0.4-1.3-0.8-2.6-1.1-4"/>
<path class="st0" d="M80.9,307.9c0.2,1.4,0.5,2.7,0.8,4"/>
<path class="st0" d="M80.3,299.9c0,1.3,0.1,2.7,0.2,4"/>
<path class="st0" d="M76.8,307.9c-0.2-1.3-0.3-2.7-0.4-4"/>
<path class="st0" d="M77.6,311.9c-0.3-1.3-0.5-2.7-0.7-4"/>
<path class="st0" d="M76.3,299.9c0,1.3,0.1,2.7,0.2,4"/>
<path class="st0" d="M78.6,315.9c-0.4-1.3-0.7-2.6-1-4"/>
<path class="st0" d="M80,319.9c-0.5-1.3-1-2.6-1.4-4"/>
<path class="st0" d="M74.4,315.9c-0.4-1.3-0.7-2.6-1-4"/>
<path class="st0" d="M75.7,319.9c-0.5-1.3-0.9-2.6-1.3-4"/>
<path class="st0" d="M72.3,299.9c0,1.3,0.1,2.7,0.1,4"/>
<path class="st0" d="M73.5,311.9c-0.3-1.3-0.5-2.7-0.7-4"/>
<path class="st0" d="M72.4,303.9c0.1,1.3,0.2,2.7,0.4,4"/>
<path class="st0" d="M71.5,319.9c-0.4-1.3-0.8-2.6-1.2-4"/>
<path class="st0" d="M69.4,311.9c-0.3-1.3-0.5-2.7-0.6-4"/>
<path class="st1" d="M68,303.7c0,1.3,0.1,2.5,0.1,3.8"/>
<path class="st1" d="M68.1,307.5c0.1,1.3,0.2,2.5,0.4,3.8"/>
<path class="st0" d="M70.3,315.9c-0.3-1.3-0.6-2.7-0.9-4"/>
<path class="st1" d="M64.3,307.5c0.1,1.3,0.2,2.5,0.3,3.8"/>
<path class="st1" d="M64.7,311.3c0.1,1.3,0.3,2.5,0.6,3.8"/>
<path class="st1" d="M64.2,303.7c0,1.3,0,2.5,0.1,3.8"/>
<path class="st1" d="M66,318.8c-0.3-1.3-0.6-2.5-0.8-3.8"/>
<path class="st1" d="M67,322.6c-0.4-1.2-0.7-2.5-1-3.8"/>
<path class="st1" d="M62.1,318.8c-0.3-1.3-0.5-2.5-0.8-3.8"/>
<path class="st1" d="M60.8,311.3c0.1,1.3,0.3,2.5,0.5,3.8"/>
<path class="st1" d="M63.1,322.6c-0.4-1.3-0.7-2.5-1-3.8"/>
<path class="st1" d="M60.8,311.3c-0.1-1.3-0.2-2.5-0.3-3.8"/>
<path class="st1" d="M60.4,303.7c0,1.3,0,2.5,0.1,3.8"/>
<line class="st0" x1="76.3" y1="299.9" x2="72.3" y2="299.9"/>
<line class="st1" x1="59.5" y1="303.7" x2="64.2" y2="303.7"/>
<line class="st1" x1="68" y1="303.7" x2="64.2" y2="303.7"/>
<line class="st0" x1="76.3" y1="299.9" x2="80.3" y2="299.9"/>
<line class="st0" x1="68.3" y1="299.9" x2="72.3" y2="299.9"/>
<line class="st0" x1="80.3" y1="299.9" x2="110.2" y2="299.9"/>
<line class="st1" x1="68.1" y1="307.5" x2="64.3" y2="307.5"/>
<line class="st0" x1="80.4" y1="303.9" x2="110.2" y2="303.9"/>
<line class="st0" x1="76.4" y1="303.9" x2="72.4" y2="303.9"/>
<line class="st0" x1="80.4" y1="303.9" x2="76.4" y2="303.9"/>
<line class="st0" x1="72.4" y1="303.9" x2="68.4" y2="303.9"/>
<line class="st1" x1="64.3" y1="307.5" x2="60.5" y2="307.5"/>
<line class="st1" x1="68.5" y1="311.3" x2="64.7" y2="311.3"/>
<line class="st1" x1="60.8" y1="311.3" x2="64.7" y2="311.3"/>
<line class="st0" x1="110.2" y1="307.9" x2="80.9" y2="307.9"/>
<line class="st0" x1="76.8" y1="307.9" x2="72.8" y2="307.9"/>
<line class="st0" x1="72.8" y1="307.9" x2="68.8" y2="307.9"/>
<line class="st0" x1="80.9" y1="307.9" x2="76.8" y2="307.9"/>
<line class="st0" x1="81.7" y1="311.9" x2="77.6" y2="311.9"/>
<line class="st0" x1="69.4" y1="311.9" x2="73.5" y2="311.9"/>
<line class="st0" x1="73.5" y1="311.9" x2="77.6" y2="311.9"/>
<line class="st0" x1="81.7" y1="311.9" x2="110.2" y2="311.9"/>
<line class="st1" x1="61.4" y1="315.1" x2="65.2" y2="315.1"/>
<line class="st0" x1="65.3" y1="311.9" x2="69.4" y2="311.9"/>
<line class="st0" x1="66.2" y1="315.9" x2="70.3" y2="315.9"/>
<line class="st0" x1="110.2" y1="315.9" x2="82.8" y2="315.9"/>
<line class="st0" x1="78.6" y1="315.9" x2="82.8" y2="315.9"/>
<line class="st0" x1="74.4" y1="315.9" x2="78.6" y2="315.9"/>
<line class="st1" x1="62.1" y1="318.8" x2="66" y2="318.8"/>
<line class="st0" x1="70.3" y1="315.9" x2="74.4" y2="315.9"/>
<line class="st0" x1="67.3" y1="319.9" x2="71.5" y2="319.9"/>
<line class="st0" x1="71.5" y1="319.9" x2="75.7" y2="319.9"/>
<line class="st1" x1="63.1" y1="322.6" x2="67" y2="322.6"/>
<line class="st0" x1="75.7" y1="319.9" x2="80" y2="319.9"/>
<line class="st0" x1="84.3" y1="319.9" x2="110.2" y2="319.9"/>
<line class="st0" x1="80" y1="319.9" x2="84.3" y2="319.9"/>
<path class="st0" d="M84.3,319.9c7.8,18.8,26.4,32,48,32c28.7,0,52-23.3,52-52c0-28.7-23.3-52-52-52c-21.6,0-40.1,13.2-48,32"/>
<path class="st0" d="M80,319.9c8.1,21,28.4,36,52.3,36c30.9,0,56-25.1,56-56s-25.1-56-56-56c-23.9,0-44.2,14.9-52.3,36"/>
<path class="st0" d="M75.7,319.9c8.2,23.3,30.4,40,56.6,40c33.1,0,60-26.9,60-60s-26.9-60-60-60c-26.1,0-48.3,16.7-56.6,40"/>
<path class="st0" d="M72.3,299.9C72.3,299.9,72.3,299.9,72.3,299.9C72.3,299.9,72.3,299.9,72.3,299.9"/>
<path class="st0" d="M71.5,319.9c8.4,25.5,32.4,44,60.8,44c35.3,0,64-28.7,64-64c0-35.3-28.7-64-64-64c-28.3,0-52.4,18.4-60.8,44"/>
<path class="st0" d="M67.3,319.9c8.5,27.8,34.4,48,65,48c37.6,0,68-30.4,68-68s-30.4-68-68-68c-30.6,0-56.4,20.2-65,48"/>
<path class="st0" d="M63.1,319.9c8.7,30,36.3,52,69.2,52c39.8,0,72-32.2,72-72c0-39.8-32.2-72-72-72c-32.8,0-60.5,22-69.2,52"/>
<line class="st1" x1="60.4" y1="303.6" x2="64.2" y2="303.6"/>
<line class="st1" x1="64.2" y1="303.6" x2="68" y2="303.6"/>
<line class="st0" x1="80.3" y1="299.9" x2="110.5" y2="299.9"/>
<line class="st0" x1="68.3" y1="299.9" x2="72.3" y2="299.9"/>
<line class="st0" x1="76.3" y1="299.9" x2="80.3" y2="299.9"/>
<line class="st0" x1="72.3" y1="299.9" x2="76.3" y2="299.9"/>
<line class="st0" x1="224.8" y1="231.5" x2="224.8" y2="235.6"/>
<line class="st0" x1="224.8" y1="357.7" x2="224.8" y2="361.8"/>
<line class="st0" x1="224.8" y1="247.8" x2="224.8" y2="349.6"/>
<line class="st2" x1="224.8" y1="226.7" x2="224.8" y2="231.5"/>
<line class="st0" x1="224.8" y1="349.6" x2="224.8" y2="353.7"/>
<line class="st0" x1="224.8" y1="235.6" x2="224.8" y2="239.6"/>
<line class="st0" x1="224.8" y1="353.7" x2="224.8" y2="357.7"/>
<line class="st0" x1="224.8" y1="239.6" x2="224.8" y2="243.7"/>
<line class="st0" x1="224.8" y1="361.8" x2="224.8" y2="365.8"/>
<line class="st0" x1="224.8" y1="243.7" x2="224.8" y2="247.8"/>
<line class="st0" x1="224.8" y1="365.8" x2="224.8" y2="369.9"/>
<line class="st0" x1="224.8" y1="371.6" x2="224.8" y2="369.9"/>
<line class="st0" x1="228.8" y1="354.3" x2="228.8" y2="358.3"/>
<line class="st0" x1="228.8" y1="350.2" x2="228.8" y2="354.3"/>
<line class="st0" x1="228.8" y1="247.1" x2="228.8" y2="350.2"/>
<line class="st0" x1="228.8" y1="243.1" x2="228.8" y2="247.1"/>
<line class="st0" x1="228.8" y1="362.3" x2="228.8" y2="366.3"/>
<line class="st0" x1="228.8" y1="235" x2="228.8" y2="239.1"/>
<line class="st0" x1="228.8" y1="366.3" x2="228.8" y2="370.4"/>
<line class="st0" x1="228.8" y1="370.4" x2="228.8" y2="371.6"/>
<line class="st0" x1="228.8" y1="358.3" x2="228.8" y2="362.3"/>
<line class="st0" x1="228.8" y1="231" x2="228.8" y2="235"/>
<line class="st0" x1="228.8" y1="239.1" x2="228.8" y2="243.1"/>
<line class="st0" x1="228.8" y1="226.7" x2="228.8" y2="231"/>
<line class="st0" x1="232.8" y1="238.7" x2="232.8" y2="234.7"/>
<line class="st0" x1="232.8" y1="246.8" x2="232.8" y2="242.7"/>
<line class="st0" x1="232.8" y1="362.6" x2="232.8" y2="358.6"/>
<line class="st0" x1="232.8" y1="230.7" x2="232.8" y2="226.7"/>
<line class="st0" x1="232.8" y1="354.6" x2="232.8" y2="350.6"/>
<line class="st0" x1="232.8" y1="350.6" x2="232.8" y2="246.8"/>
<line class="st0" x1="232.8" y1="358.6" x2="232.8" y2="354.6"/>
<line class="st0" x1="232.8" y1="234.7" x2="232.8" y2="230.7"/>
<line class="st0" x1="232.8" y1="242.7" x2="232.8" y2="238.7"/>
<line class="st0" x1="232.8" y1="366.6" x2="232.8" y2="362.6"/>
<line class="st0" x1="232.8" y1="370.6" x2="232.8" y2="371.6"/>
<line class="st0" x1="232.8" y1="370.6" x2="232.8" y2="366.6"/>
<line class="st0" x1="236.8" y1="246.7" x2="236.8" y2="350.6"/>
<line class="st0" x1="236.8" y1="358.6" x2="236.8" y2="362.6"/>
<line class="st0" x1="236.8" y1="350.6" x2="236.8" y2="354.6"/>
<line class="st0" x1="236.8" y1="354.6" x2="236.8" y2="358.6"/>
<line class="st0" x1="236.8" y1="234.7" x2="236.8" y2="238.7"/>
<line class="st0" x1="236.8" y1="226.7" x2="236.8" y2="230.7"/>
<line class="st0" x1="236.8" y1="370.6" x2="236.8" y2="371.6"/>
<line class="st0" x1="236.8" y1="238.7" x2="236.8" y2="242.7"/>
<line class="st0" x1="236.8" y1="230.7" x2="236.8" y2="234.7"/>
<line class="st0" x1="236.8" y1="242.7" x2="236.8" y2="246.7"/>
<line class="st0" x1="236.8" y1="366.6" x2="236.8" y2="370.6"/>
<line class="st0" x1="236.8" y1="362.6" x2="236.8" y2="366.6"/>
<line class="st0" x1="240.8" y1="370.4" x2="240.8" y2="366.5"/>
<line class="st0" x1="240.8" y1="242.9" x2="240.8" y2="238.9"/>
<line class="st0" x1="240.8" y1="362.4" x2="240.8" y2="358.4"/>
<line class="st0" x1="240.8" y1="366.5" x2="240.8" y2="362.4"/>
<line class="st0" x1="240.8" y1="247" x2="240.8" y2="242.9"/>
<line class="st0" x1="240.8" y1="350.4" x2="240.8" y2="247"/>
<line class="st0" x1="240.8" y1="358.4" x2="240.8" y2="354.4"/>
<line class="st0" x1="240.8" y1="370.4" x2="240.8" y2="371.6"/>
<line class="st0" x1="240.8" y1="234.9" x2="240.8" y2="230.9"/>
<line class="st0" x1="240.8" y1="230.9" x2="240.8" y2="226.9"/>
<line class="st0" x1="240.8" y1="354.4" x2="240.8" y2="350.4"/>
<line class="st0" x1="240.8" y1="238.9" x2="240.8" y2="234.9"/>
<line class="st0" x1="244.8" y1="243.5" x2="244.8" y2="247.5"/>
<line class="st0" x1="244.8" y1="353.9" x2="244.8" y2="358"/>
<line class="st0" x1="244.8" y1="349.8" x2="244.8" y2="353.9"/>
<line class="st0" x1="244.8" y1="247.5" x2="244.8" y2="349.8"/>
<line class="st0" x1="244.8" y1="366" x2="244.8" y2="370"/>
<line class="st0" x1="244.8" y1="226.8" x2="244.8" y2="231.3"/>
<line class="st0" x1="244.8" y1="371.6" x2="244.8" y2="370"/>
<line class="st0" x1="244.8" y1="235.4" x2="244.8" y2="239.4"/>
<line class="st0" x1="244.8" y1="231.3" x2="244.8" y2="235.4"/>
<line class="st0" x1="244.8" y1="358" x2="244.8" y2="362"/>
<line class="st0" x1="244.8" y1="239.4" x2="244.8" y2="243.5"/>
<line class="st0" x1="244.8" y1="362" x2="244.8" y2="366"/>
<line class="st0" x1="331.3" y1="231.5" x2="331.3" y2="235.6"/>
<line class="st0" x1="331.3" y1="357.7" x2="331.3" y2="361.8"/>
<line class="st0" x1="331.3" y1="247.8" x2="331.3" y2="349.6"/>
<line class="st2" x1="331.3" y1="226.7" x2="331.3" y2="231.5"/>
<line class="st0" x1="331.3" y1="349.6" x2="331.3" y2="353.7"/>
<line class="st0" x1="331.3" y1="235.6" x2="331.3" y2="239.6"/>
<line class="st0" x1="331.3" y1="353.7" x2="331.3" y2="357.7"/>
<line class="st0" x1="331.3" y1="239.6" x2="331.3" y2="243.7"/>
<line class="st0" x1="331.3" y1="361.8" x2="331.3" y2="365.8"/>
<line class="st0" x1="331.3" y1="243.7" x2="331.3" y2="247.8"/>
<line class="st0" x1="331.3" y1="365.8" x2="331.3" y2="369.9"/>
<line class="st0" x1="331.3" y1="371.6" x2="331.3" y2="369.9"/>
<line class="st0" x1="335.3" y1="354.3" x2="335.3" y2="358.3"/>
<line class="st0" x1="335.3" y1="350.2" x2="335.3" y2="354.3"/>
<line class="st0" x1="335.3" y1="247.1" x2="335.3" y2="350.2"/>
<line class="st0" x1="335.3" y1="243.1" x2="335.3" y2="247.1"/>
<line class="st0" x1="335.3" y1="362.3" x2="335.3" y2="366.3"/>
<line class="st0" x1="335.3" y1="235" x2="335.3" y2="239.1"/>
<line class="st0" x1="335.3" y1="366.3" x2="335.3" y2="370.4"/>
<line class="st0" x1="335.3" y1="370.4" x2="335.3" y2="371.6"/>
<line class="st0" x1="335.3" y1="358.3" x2="335.3" y2="362.3"/>
<line class="st0" x1="335.3" y1="231" x2="335.3" y2="235"/>
<line class="st0" x1="335.3" y1="239.1" x2="335.3" y2="243.1"/>
<line class="st0" x1="335.3" y1="226.7" x2="335.3" y2="231"/>
<line class="st0" x1="339.3" y1="238.7" x2="339.3" y2="234.7"/>
<line class="st0" x1="339.3" y1="246.8" x2="339.3" y2="242.7"/>
<line class="st0" x1="339.3" y1="362.6" x2="339.3" y2="358.6"/>
<line class="st0" x1="339.3" y1="230.7" x2="339.3" y2="226.7"/>
<line class="st0" x1="339.3" y1="354.6" x2="339.3" y2="350.6"/>
<line class="st0" x1="339.3" y1="350.6" x2="339.3" y2="246.8"/>
<line class="st0" x1="339.3" y1="358.6" x2="339.3" y2="354.6"/>
<line class="st0" x1="339.3" y1="234.7" x2="339.3" y2="230.7"/>
<line class="st0" x1="339.3" y1="242.7" x2="339.3" y2="238.7"/>
<line class="st0" x1="339.3" y1="366.6" x2="339.3" y2="362.6"/>
<line class="st0" x1="339.3" y1="370.6" x2="339.3" y2="371.6"/>
<line class="st0" x1="339.3" y1="370.6" x2="339.3" y2="366.6"/>
<line class="st0" x1="343.3" y1="246.7" x2="343.3" y2="350.6"/>
<line class="st0" x1="343.3" y1="358.6" x2="343.3" y2="362.6"/>
<line class="st0" x1="343.3" y1="350.6" x2="343.3" y2="354.6"/>
<line class="st0" x1="343.3" y1="354.6" x2="343.3" y2="358.6"/>
<line class="st0" x1="343.3" y1="234.7" x2="343.3" y2="238.7"/>
<line class="st0" x1="343.3" y1="226.7" x2="343.3" y2="230.7"/>
<line class="st0" x1="343.3" y1="370.6" x2="343.3" y2="371.6"/>
<line class="st0" x1="343.3" y1="238.7" x2="343.3" y2="242.7"/>
<line class="st0" x1="343.3" y1="230.7" x2="343.3" y2="234.7"/>
<line class="st0" x1="343.3" y1="242.7" x2="343.3" y2="246.7"/>
<line class="st0" x1="343.3" y1="366.6" x2="343.3" y2="370.6"/>
<line class="st0" x1="343.3" y1="362.6" x2="343.3" y2="366.6"/>
<line class="st0" x1="347.3" y1="370.4" x2="347.3" y2="366.5"/>
<line class="st0" x1="347.3" y1="242.9" x2="347.3" y2="238.9"/>
<line class="st0" x1="347.3" y1="362.4" x2="347.3" y2="358.4"/>
<line class="st0" x1="347.3" y1="366.5" x2="347.3" y2="362.4"/>
<line class="st0" x1="347.3" y1="247" x2="347.3" y2="242.9"/>
<line class="st0" x1="347.3" y1="350.4" x2="347.3" y2="247"/>
<line class="st0" x1="347.3" y1="358.4" x2="347.3" y2="354.4"/>
<line class="st0" x1="347.3" y1="370.4" x2="347.3" y2="371.6"/>
<line class="st0" x1="347.3" y1="234.9" x2="347.3" y2="230.9"/>
<line class="st0" x1="347.3" y1="230.9" x2="347.3" y2="226.9"/>
<line class="st0" x1="347.3" y1="354.4" x2="347.3" y2="350.4"/>
<line class="st0" x1="347.3" y1="238.9" x2="347.3" y2="234.9"/>
<line class="st0" x1="351.3" y1="243.5" x2="351.3" y2="247.5"/>
<line class="st0" x1="351.3" y1="353.9" x2="351.3" y2="358"/>
<line class="st0" x1="351.3" y1="349.8" x2="351.3" y2="353.9"/>
<line class="st0" x1="351.3" y1="247.5" x2="351.3" y2="349.8"/>
<line class="st0" x1="351.3" y1="366" x2="351.3" y2="370"/>
<line class="st0" x1="351.3" y1="226.8" x2="351.3" y2="231.3"/>
<line class="st0" x1="351.3" y1="371.6" x2="351.3" y2="370"/>
<line class="st0" x1="351.3" y1="235.4" x2="351.3" y2="239.4"/>
<line class="st0" x1="351.3" y1="231.3" x2="351.3" y2="235.4"/>
<line class="st0" x1="351.3" y1="358" x2="351.3" y2="362"/>
<line class="st0" x1="351.3" y1="239.4" x2="351.3" y2="243.5"/>
<line class="st0" x1="351.3" y1="362" x2="351.3" y2="366"/>
<line class="st0" x1="331.3" y1="357.1" x2="244.8" y2="270.7"/>
<line class="st0" x1="331.3" y1="351.5" x2="244.8" y2="265"/>
<line class="st0" x1="331.3" y1="345.8" x2="244.8" y2="259.4"/>
<line class="st0" x1="331.3" y1="340.1" x2="244.8" y2="253.7"/>
<line class="st0" x1="331.3" y1="334.4" x2="244.8" y2="247.5"/>
<line class="st0" x1="331.3" y1="328.8" x2="244.8" y2="242.4"/>
<g>
	<rect x="384.5" y="370.1" width="61.9" height="2.1"/>
</g>
<g>
	<rect x="384.5" y="366.1" width="61.9" height="2.1"/>
</g>
<g>
	<rect x="384.5" y="362.1" width="61.9" height="2.1"/>
</g>
<g>
	<rect x="384.5" y="358.1" width="61.9" height="2.1"/>
</g>
<g>
	<rect x="384.5" y="354.1" width="61.9" height="2.1"/>
</g>
<g>
	<rect x="384.5" y="350.1" width="61.9" height="2.1"/>
</g>
<line class="st0" x1="384.5" y1="372.1" x2="384.5" y2="226.1"/>
<line class="st0" x1="388.5" y1="372.1" x2="388.5" y2="226.1"/>
<line class="st0" x1="392.5" y1="372.1" x2="392.5" y2="226.1"/>
<line class="st0" x1="396.5" y1="372.1" x2="396.5" y2="226.1"/>
<line class="st0" x1="400.5" y1="372.1" x2="400.5" y2="226.1"/>
<line class="st0" x1="404.5" y1="372.1" x2="404.5" y2="226.1"/>
<g>
	<rect x="431.3" y="226.2" width="62.7" height="2.1"/>
</g>
<g>
	<rect x="431.3" y="230.2" width="62.7" height="2.1"/>
</g>
<g>
	<rect x="431.3" y="234.2" width="62.7" height="2.1"/>
</g>
<g>
	<rect x="431.3" y="238.2" width="62.7" height="2.1"/>
</g>
<g>
	<rect x="431.3" y="242.2" width="62.7" height="2.1"/>
</g>
<g>
	<rect x="431.3" y="246.2" width="62.7" height="2.1"/>
</g>
<line class="st0" x1="493.3" y1="226.1" x2="493.3" y2="372.1"/>
<line class="st0" x1="489.3" y1="226.1" x2="489.3" y2="372.1"/>
<line class="st0" x1="485.3" y1="226.1" x2="485.3" y2="372.1"/>
<line class="st0" x1="481.3" y1="226.1" x2="481.3" y2="372.1"/>
<line class="st0" x1="477.3" y1="226.1" x2="477.3" y2="372.1"/>
<line class="st0" x1="473.3" y1="226.1" x2="473.3" y2="372.1"/>
<line class="st0" x1="653" y1="366.8" x2="653" y2="362.7"/>
<line class="st0" x1="653" y1="240.6" x2="653" y2="236.5"/>
<line class="st0" x1="653" y1="350.5" x2="653" y2="248.7"/>
<line class="st2" x1="653" y1="371.6" x2="653" y2="366.8"/>
<line class="st0" x1="653" y1="248.7" x2="653" y2="244.6"/>
<line class="st0" x1="653" y1="362.7" x2="653" y2="358.6"/>
<line class="st0" x1="653" y1="244.6" x2="653" y2="240.6"/>
<line class="st0" x1="653" y1="358.6" x2="653" y2="354.6"/>
<line class="st0" x1="653" y1="236.5" x2="653" y2="232.4"/>
<line class="st0" x1="653" y1="354.6" x2="653" y2="350.5"/>
<line class="st0" x1="653" y1="232.4" x2="653" y2="228.4"/>
<line class="st0" x1="653" y1="226.6" x2="653" y2="228.4"/>
<line class="st0" x1="649" y1="244" x2="649" y2="240"/>
<line class="st0" x1="649" y1="248" x2="649" y2="244"/>
<line class="st0" x1="649" y1="351.2" x2="649" y2="248"/>
<line class="st0" x1="649" y1="355.2" x2="649" y2="351.2"/>
<line class="st0" x1="649" y1="236" x2="649" y2="231.9"/>
<line class="st0" x1="649" y1="363.2" x2="649" y2="359.2"/>
<line class="st0" x1="649" y1="231.9" x2="649" y2="227.9"/>
<line class="st0" x1="649" y1="227.9" x2="649" y2="226.6"/>
<line class="st0" x1="649" y1="240" x2="649" y2="236"/>
<line class="st0" x1="649" y1="367.3" x2="649" y2="363.2"/>
<line class="st0" x1="649" y1="359.2" x2="649" y2="355.2"/>
<line class="st0" x1="649" y1="371.6" x2="649" y2="367.3"/>
<line class="st0" x1="645" y1="359.5" x2="645" y2="363.5"/>
<line class="st0" x1="645" y1="351.5" x2="645" y2="355.5"/>
<line class="st0" x1="645" y1="235.7" x2="645" y2="239.7"/>
<line class="st0" x1="645" y1="367.5" x2="645" y2="371.6"/>
<line class="st0" x1="645" y1="243.7" x2="645" y2="247.7"/>
<line class="st0" x1="645" y1="247.7" x2="645" y2="351.5"/>
<line class="st0" x1="645" y1="239.7" x2="645" y2="243.7"/>
<line class="st0" x1="645" y1="363.5" x2="645" y2="367.5"/>
<line class="st0" x1="645" y1="355.5" x2="645" y2="359.5"/>
<line class="st0" x1="645" y1="231.7" x2="645" y2="235.7"/>
<line class="st0" x1="645" y1="227.7" x2="645" y2="226.6"/>
<line class="st0" x1="645" y1="227.7" x2="645" y2="231.7"/>
<line class="st0" x1="641" y1="351.6" x2="641" y2="247.6"/>
<line class="st0" x1="641" y1="239.6" x2="641" y2="235.6"/>
<line class="st0" x1="641" y1="247.6" x2="641" y2="243.6"/>
<line class="st0" x1="641" y1="243.6" x2="641" y2="239.6"/>
<line class="st0" x1="641" y1="363.6" x2="641" y2="359.6"/>
<line class="st0" x1="641" y1="371.6" x2="641" y2="367.6"/>
<line class="st0" x1="641" y1="227.6" x2="641" y2="226.6"/>
<line class="st0" x1="641" y1="359.6" x2="641" y2="355.6"/>
<line class="st0" x1="641" y1="367.6" x2="641" y2="363.6"/>
<line class="st0" x1="641" y1="355.6" x2="641" y2="351.6"/>
<line class="st0" x1="641" y1="231.6" x2="641" y2="227.6"/>
<line class="st0" x1="641" y1="235.6" x2="641" y2="231.6"/>
<line class="st0" x1="637" y1="227.8" x2="637" y2="231.8"/>
<line class="st0" x1="637" y1="355.3" x2="637" y2="359.4"/>
<line class="st0" x1="637" y1="235.8" x2="637" y2="239.9"/>
<line class="st0" x1="637" y1="231.8" x2="637" y2="235.8"/>
<line class="st0" x1="637" y1="351.3" x2="637" y2="355.3"/>
<line class="st0" x1="637" y1="247.9" x2="637" y2="351.3"/>
<line class="st0" x1="637" y1="239.9" x2="637" y2="243.9"/>
<line class="st0" x1="637" y1="227.8" x2="637" y2="226.6"/>
<line class="st0" x1="637" y1="363.4" x2="637" y2="367.4"/>
<line class="st0" x1="637" y1="367.4" x2="637" y2="371.4"/>
<line class="st0" x1="637" y1="243.9" x2="637" y2="247.9"/>
<line class="st0" x1="637" y1="359.4" x2="637" y2="363.4"/>
<line class="st0" x1="633" y1="354.8" x2="633" y2="350.7"/>
<line class="st0" x1="633" y1="244.4" x2="633" y2="240.3"/>
<line class="st0" x1="633" y1="248.5" x2="633" y2="244.4"/>
<line class="st0" x1="633" y1="350.7" x2="633" y2="248.5"/>
<line class="st0" x1="633" y1="232.3" x2="633" y2="228.2"/>
<line class="st0" x1="633" y1="371.5" x2="633" y2="367"/>
<line class="st0" x1="633" y1="226.6" x2="633" y2="228.2"/>
<line class="st0" x1="633" y1="362.9" x2="633" y2="358.9"/>
<line class="st0" x1="633" y1="367" x2="633" y2="362.9"/>
<line class="st0" x1="633" y1="240.3" x2="633" y2="236.3"/>
<line class="st0" x1="633" y1="358.9" x2="633" y2="354.8"/>
<line class="st0" x1="633" y1="236.3" x2="633" y2="232.3"/>
<line class="st0" x1="546.6" y1="366.8" x2="546.6" y2="362.7"/>
<line class="st0" x1="546.6" y1="240.6" x2="546.6" y2="236.5"/>
<line class="st0" x1="546.6" y1="350.5" x2="546.6" y2="248.7"/>
<line class="st2" x1="546.6" y1="371.6" x2="546.6" y2="366.8"/>
<line class="st0" x1="546.6" y1="248.7" x2="546.6" y2="244.6"/>
<line class="st0" x1="546.6" y1="362.7" x2="546.6" y2="358.6"/>
<line class="st0" x1="546.6" y1="244.6" x2="546.6" y2="240.6"/>
<line class="st0" x1="546.6" y1="358.6" x2="546.6" y2="354.6"/>
<line class="st0" x1="546.6" y1="236.5" x2="546.6" y2="232.4"/>
<line class="st0" x1="546.6" y1="354.6" x2="546.6" y2="350.5"/>
<line class="st0" x1="546.6" y1="232.4" x2="546.6" y2="228.4"/>
<line class="st0" x1="546.6" y1="226.6" x2="546.6" y2="228.4"/>
<line class="st0" x1="542.6" y1="244" x2="542.6" y2="240"/>
<line class="st0" x1="542.6" y1="248" x2="542.6" y2="244"/>
<line class="st0" x1="542.6" y1="351.2" x2="542.6" y2="248"/>
<line class="st0" x1="542.6" y1="355.2" x2="542.6" y2="351.2"/>
<line class="st0" x1="542.6" y1="236" x2="542.6" y2="231.9"/>
<line class="st0" x1="542.6" y1="363.2" x2="542.6" y2="359.2"/>
<line class="st0" x1="542.6" y1="231.9" x2="542.6" y2="227.9"/>
<line class="st0" x1="542.6" y1="227.9" x2="542.6" y2="226.6"/>
<line class="st0" x1="542.6" y1="240" x2="542.6" y2="236"/>
<line class="st0" x1="542.6" y1="367.3" x2="542.6" y2="363.2"/>
<line class="st0" x1="542.6" y1="359.2" x2="542.6" y2="355.2"/>
<line class="st0" x1="542.6" y1="371.6" x2="542.6" y2="367.3"/>
<line class="st0" x1="538.6" y1="359.5" x2="538.6" y2="363.5"/>
<line class="st0" x1="538.6" y1="351.5" x2="538.6" y2="355.5"/>
<line class="st0" x1="538.6" y1="235.7" x2="538.6" y2="239.7"/>
<line class="st0" x1="538.6" y1="367.5" x2="538.6" y2="371.6"/>
<line class="st0" x1="538.6" y1="243.7" x2="538.6" y2="247.7"/>
<line class="st0" x1="538.6" y1="247.7" x2="538.6" y2="351.5"/>
<line class="st0" x1="538.6" y1="239.7" x2="538.6" y2="243.7"/>
<line class="st0" x1="538.6" y1="363.5" x2="538.6" y2="367.5"/>
<line class="st0" x1="538.6" y1="355.5" x2="538.6" y2="359.5"/>
<line class="st0" x1="538.6" y1="231.7" x2="538.6" y2="235.7"/>
<line class="st0" x1="538.6" y1="227.7" x2="538.6" y2="226.6"/>
<line class="st0" x1="538.6" y1="227.7" x2="538.6" y2="231.7"/>
<line class="st0" x1="534.6" y1="351.6" x2="534.6" y2="247.6"/>
<line class="st0" x1="534.6" y1="239.6" x2="534.6" y2="235.6"/>
<line class="st0" x1="534.6" y1="247.6" x2="534.6" y2="243.6"/>
<line class="st0" x1="534.6" y1="243.6" x2="534.6" y2="239.6"/>
<line class="st0" x1="534.6" y1="363.6" x2="534.6" y2="359.6"/>
<line class="st0" x1="534.6" y1="371.6" x2="534.6" y2="367.6"/>
<line class="st0" x1="534.6" y1="227.6" x2="534.6" y2="226.6"/>
<line class="st0" x1="534.6" y1="359.6" x2="534.6" y2="355.6"/>
<line class="st0" x1="534.6" y1="367.6" x2="534.6" y2="363.6"/>
<line class="st0" x1="534.6" y1="355.6" x2="534.6" y2="351.6"/>
<line class="st0" x1="534.6" y1="231.6" x2="534.6" y2="227.6"/>
<line class="st0" x1="534.6" y1="235.6" x2="534.6" y2="231.6"/>
<line class="st0" x1="530.6" y1="227.8" x2="530.6" y2="231.8"/>
<line class="st0" x1="530.6" y1="355.3" x2="530.6" y2="359.4"/>
<line class="st0" x1="530.6" y1="235.8" x2="530.6" y2="239.9"/>
<line class="st0" x1="530.6" y1="231.8" x2="530.6" y2="235.8"/>
<line class="st0" x1="530.6" y1="351.3" x2="530.6" y2="355.3"/>
<line class="st0" x1="530.6" y1="247.9" x2="530.6" y2="351.3"/>
<line class="st0" x1="530.6" y1="239.9" x2="530.6" y2="243.9"/>
<line class="st0" x1="530.6" y1="227.8" x2="530.6" y2="226.6"/>
<line class="st0" x1="530.6" y1="363.4" x2="530.6" y2="367.4"/>
<line class="st0" x1="530.6" y1="367.4" x2="530.6" y2="371.4"/>
<line class="st0" x1="530.6" y1="243.9" x2="530.6" y2="247.9"/>
<line class="st0" x1="530.6" y1="359.4" x2="530.6" y2="363.4"/>
<line class="st0" x1="526.6" y1="354.8" x2="526.6" y2="350.7"/>
<line class="st0" x1="526.6" y1="244.4" x2="526.6" y2="240.3"/>
<line class="st0" x1="526.6" y1="248.5" x2="526.6" y2="244.4"/>
<line class="st0" x1="526.6" y1="350.7" x2="526.6" y2="248.5"/>
<line class="st0" x1="526.6" y1="232.3" x2="526.6" y2="228.2"/>
<line class="st0" x1="526.6" y1="371.5" x2="526.6" y2="367"/>
<line class="st0" x1="526.6" y1="226.6" x2="526.6" y2="228.2"/>
<line class="st0" x1="526.6" y1="362.9" x2="526.6" y2="358.9"/>
<line class="st0" x1="526.6" y1="367" x2="526.6" y2="362.9"/>
<line class="st0" x1="526.6" y1="240.3" x2="526.6" y2="236.3"/>
<line class="st0" x1="526.6" y1="358.9" x2="526.6" y2="354.8"/>
<line class="st0" x1="526.6" y1="236.3" x2="526.6" y2="232.3"/>
<line class="st0" x1="546.6" y1="241.2" x2="633" y2="327.6"/>
<line class="st0" x1="546.6" y1="246.8" x2="633" y2="333.2"/>
<line class="st0" x1="546.6" y1="252.5" x2="633" y2="338.9"/>
<line class="st0" x1="546.6" y1="258.1" x2="633" y2="344.6"/>
<line class="st0" x1="546.6" y1="263.9" x2="633" y2="350.7"/>
<line class="st0" x1="546.6" y1="269.4" x2="633" y2="355.9"/>
<path class="st0" d="M793.6,278.3c0.5,1.3,1,2.6,1.5,4"/>
<path class="st0" d="M797,290.3c0.2,1.3,0.3,2.7,0.4,4"/>
<path class="st0" d="M795.1,282.3c0.4,1.3,0.8,2.6,1.1,4"/>
<path class="st0" d="M797,290.3c-0.2-1.4-0.5-2.7-0.8-4"/>
<path class="st0" d="M797.6,298.3c0-1.3-0.1-2.7-0.2-4"/>
<path class="st0" d="M801,290.3c0.2,1.3,0.3,2.7,0.4,4"/>
<path class="st0" d="M800.3,286.3c0.3,1.3,0.5,2.7,0.7,4"/>
<path class="st0" d="M801.6,298.3c0-1.3-0.1-2.7-0.2-4"/>
<path class="st0" d="M799.2,282.3c0.4,1.3,0.7,2.6,1,4"/>
<path class="st0" d="M797.9,278.3c0.5,1.3,1,2.6,1.4,4"/>
<path class="st0" d="M803.4,282.3c0.4,1.3,0.7,2.6,1,4"/>
<path class="st0" d="M802.2,278.3c0.5,1.3,0.9,2.6,1.3,4"/>
<path class="st0" d="M805.6,298.3c0-1.3-0.1-2.7-0.1-4"/>
<path class="st0" d="M804.4,286.3c0.3,1.3,0.5,2.7,0.7,4"/>
<path class="st0" d="M805.4,294.3c-0.1-1.3-0.2-2.7-0.4-4"/>
<path class="st0" d="M806.4,278.3c0.4,1.3,0.8,2.6,1.2,4"/>
<path class="st0" d="M808.4,286.3c0.3,1.3,0.5,2.7,0.6,4"/>
<path class="st0" d="M809.6,298.3c0-1.3-0.1-2.7-0.1-4"/>
<path class="st0" d="M809.4,294.3c-0.1-1.3-0.2-2.7-0.4-4"/>
<path class="st0" d="M807.6,282.3c0.3,1.3,0.6,2.7,0.9,4"/>
<path class="st0" d="M813.5,294.3c-0.1-1.3-0.2-2.7-0.4-4"/>
<path class="st0" d="M813.1,290.3c-0.2-1.3-0.4-2.7-0.6-4"/>
<path class="st0" d="M813.6,298.3c0-1.3,0-2.7-0.1-4"/>
<path class="st0" d="M811.7,282.3c0.3,1.3,0.6,2.7,0.8,4"/>
<path class="st0" d="M810.6,278.3c0.4,1.3,0.8,2.7,1.1,4"/>
<path class="st0" d="M815.8,282.3c0.3,1.3,0.6,2.7,0.8,4"/>
<path class="st0" d="M817.1,290.3c-0.1-1.3-0.3-2.7-0.6-4"/>
<path class="st0" d="M814.7,278.3c0.4,1.3,0.7,2.7,1,4"/>
<path class="st0" d="M817.1,290.3c0.1,1.3,0.3,2.7,0.3,4"/>
<path class="st0" d="M817.6,298.3c0-1.3,0-2.7-0.1-4"/>
<line class="st0" x1="801.6" y1="298.3" x2="805.6" y2="298.3"/>
<line class="st0" x1="818.6" y1="298.3" x2="813.6" y2="298.3"/>
<line class="st0" x1="809.6" y1="298.3" x2="813.6" y2="298.3"/>
<line class="st0" x1="801.6" y1="298.3" x2="797.6" y2="298.3"/>
<line class="st0" x1="809.6" y1="298.3" x2="805.6" y2="298.3"/>
<line class="st0" x1="797.6" y1="298.3" x2="767.6" y2="298.3"/>
<line class="st0" x1="809.4" y1="294.3" x2="813.5" y2="294.3"/>
<line class="st0" x1="797.4" y1="294.3" x2="767.6" y2="294.3"/>
<line class="st0" x1="801.4" y1="294.3" x2="805.4" y2="294.3"/>
<line class="st0" x1="797.4" y1="294.3" x2="801.4" y2="294.3"/>
<line class="st0" x1="805.4" y1="294.3" x2="809.4" y2="294.3"/>
<line class="st0" x1="813.5" y1="294.3" x2="817.5" y2="294.3"/>
<line class="st0" x1="809.1" y1="290.3" x2="813.1" y2="290.3"/>
<line class="st0" x1="817.1" y1="290.3" x2="813.1" y2="290.3"/>
<line class="st0" x1="767.6" y1="290.3" x2="797" y2="290.3"/>
<line class="st0" x1="801" y1="290.3" x2="805" y2="290.3"/>
<line class="st0" x1="805" y1="290.3" x2="809.1" y2="290.3"/>
<line class="st0" x1="797" y1="290.3" x2="801" y2="290.3"/>
<line class="st0" x1="796.2" y1="286.3" x2="800.3" y2="286.3"/>
<line class="st0" x1="808.4" y1="286.3" x2="804.4" y2="286.3"/>
<line class="st0" x1="804.4" y1="286.3" x2="800.3" y2="286.3"/>
<line class="st0" x1="796.2" y1="286.3" x2="767.6" y2="286.3"/>
<line class="st0" x1="816.6" y1="286.3" x2="812.5" y2="286.3"/>
<line class="st0" x1="812.5" y1="286.3" x2="808.4" y2="286.3"/>
<line class="st0" x1="811.7" y1="282.3" x2="807.6" y2="282.3"/>
<line class="st0" x1="767.6" y1="282.3" x2="795.1" y2="282.3"/>
<line class="st0" x1="806.4" y1="278.3" x2="802.2" y2="278.3"/>
<line class="st0" x1="799.2" y1="282.3" x2="795.1" y2="282.3"/>
<line class="st0" x1="803.4" y1="282.3" x2="799.2" y2="282.3"/>
<line class="st0" x1="815.8" y1="282.3" x2="811.7" y2="282.3"/>
<line class="st0" x1="807.6" y1="282.3" x2="803.4" y2="282.3"/>
<line class="st0" x1="810.6" y1="278.3" x2="806.4" y2="278.3"/>
<line class="st0" x1="814.7" y1="278.3" x2="810.6" y2="278.3"/>
<line class="st0" x1="802.2" y1="278.3" x2="797.9" y2="278.3"/>
<line class="st0" x1="793.6" y1="278.3" x2="767.6" y2="278.3"/>
<line class="st0" x1="797.9" y1="278.3" x2="793.6" y2="278.3"/>
<path class="st0" d="M793.6,278.3c-7.8-18.8-26.4-32-48-32c-28.7,0-52,23.3-52,52c0,28.7,23.3,52,52,52c21.6,0,40.1-13.2,48-32"/>
<path class="st0" d="M797.9,278.3c-8.1-21-28.4-36-52.3-36c-30.9,0-56,25.1-56,56s25.1,56,56,56c23.9,0,44.2-14.9,52.3-36"/>
<path class="st0" d="M802.2,278.3c-8.2-23.3-30.4-40-56.6-40c-33.1,0-60,26.9-60,60s26.9,60,60,60c26.1,0,48.3-16.7,56.6-40"/>
<path class="st0" d="M806.4,278.3c-8.4-25.5-32.4-44-60.8-44c-35.3,0-64,28.7-64,64c0,35.3,28.7,64,64,64c28.3,0,52.4-18.4,60.8-44"
	/>
<path class="st0" d="M810.6,278.3c-8.5-27.8-34.4-48-65-48c-37.6,0-68,30.4-68,68s30.4,68,68,68c30.6,0,56.4-20.2,65-48"/>
<path class="st0" d="M814.7,278.3c-8.7-30-36.3-52-69.2-52c-39.8,0-72,32.2-72,72c0,39.8,32.2,72,72,72c32.8,0,60.5-22,69.2-52"/>
</svg>
