<?xml version="1.0" encoding="utf-8"?>
<!-- Generator: Adobe Illustrator 21.1.0, SVG Export Plug-In . SVG Version: 6.00 Build 0)  -->
<svg version="1.1" id="Calque_1" xmlns="http://www.w3.org/2000/svg" xmlns:xlink="http://www.w3.org/1999/xlink" x="0px" y="0px"
	 viewBox="0 0 841.9 595.3" style="enable-background:new 0 0 841.9 595.3;" xml:space="preserve">
<style type="text/css">
	.st0{fill:none;stroke:#000000;stroke-width:1.9725;stroke-miterlimit:10;}
	.st1{fill:none;stroke:#000000;stroke-width:1.972;stroke-miterlimit:10;}
</style>
<line class="st0" x1="235.5" y1="233.7" x2="235.5" y2="371.2"/>
<line class="st0" x1="231.7" y1="371.2" x2="231.7" y2="233.7"/>
<line class="st0" x1="227.9" y1="371.2" x2="227.9" y2="233.7"/>
<line class="st0" x1="224.1" y1="371.2" x2="224.1" y2="233.7"/>
<line class="st0" x1="220.1" y1="371.2" x2="220.1" y2="233.7"/>
<line class="st0" x1="216.3" y1="371.2" x2="216.3" y2="233.7"/>
<line class="st0" x1="336.4" y1="233.7" x2="336.4" y2="371.2"/>
<line class="st0" x1="332.6" y1="371.2" x2="332.6" y2="233.7"/>
<line class="st0" x1="328.8" y1="371.2" x2="328.8" y2="233.7"/>
<line class="st0" x1="325" y1="371.2" x2="325" y2="233.7"/>
<line class="st0" x1="321.2" y1="371.2" x2="321.2" y2="233.7"/>
<line class="st0" x1="317.2" y1="371.2" x2="317.2" y2="233.7"/>
<line class="st0" x1="235.5" y1="247.5" x2="317.5" y2="329.5"/>
<line class="st0" x1="235.5" y1="252.9" x2="317.5" y2="334.8"/>
<line class="st0" x1="235.5" y1="258.2" x2="317.5" y2="340.2"/>
<line class="st0" x1="235.5" y1="263.6" x2="317.5" y2="345.6"/>
<line class="st0" x1="235.5" y1="269" x2="317.5" y2="351.4"/>
<line class="st0" x1="235.5" y1="274.3" x2="317.5" y2="356.3"/>
<line class="st0" x1="367.9" y1="371.2" x2="367.9" y2="233.7"/>
<line class="st0" x1="371.7" y1="371.2" x2="371.7" y2="233.7"/>
<line class="st0" x1="375.5" y1="371.2" x2="375.5" y2="233.7"/>
<line class="st0" x1="379.3" y1="371.2" x2="379.3" y2="233.7"/>
<line class="st0" x1="383.1" y1="371.2" x2="383.1" y2="233.7"/>
<line class="st0" x1="386.9" y1="371.2" x2="386.9" y2="233.7"/>
<line class="st1" x1="421" y1="352.1" x2="367.9" y2="352.1"/>
<line class="st1" x1="421" y1="355.9" x2="367.9" y2="355.9"/>
<line class="st1" x1="421" y1="359.7" x2="367.9" y2="359.7"/>
<line class="st1" x1="421" y1="363.5" x2="367.9" y2="363.5"/>
<line class="st1" x1="421" y1="367.3" x2="367.9" y2="367.3"/>
<line class="st1" x1="421" y1="371.1" x2="367.9" y2="371.1"/>
<line class="st0" x1="474" y1="234.6" x2="474" y2="371.4"/>
<line class="st0" x1="470.2" y1="234.6" x2="470.2" y2="371.4"/>
<line class="st0" x1="466.4" y1="234.6" x2="466.4" y2="371.4"/>
<line class="st0" x1="462.6" y1="234.6" x2="462.6" y2="371.4"/>
<line class="st0" x1="458.8" y1="234.6" x2="458.8" y2="371.4"/>
<line class="st0" x1="455" y1="234.6" x2="455" y2="371.4"/>
<line class="st1" x1="420.9" y1="253.7" x2="474" y2="253.7"/>
<line class="st1" x1="420.9" y1="249.9" x2="474" y2="249.9"/>
<line class="st1" x1="420.9" y1="246.1" x2="474" y2="246.1"/>
<line class="st1" x1="420.9" y1="242.3" x2="474" y2="242.3"/>
<line class="st1" x1="420.9" y1="238.5" x2="474" y2="238.5"/>
<line class="st1" x1="420.9" y1="234.7" x2="474" y2="234.7"/>
<line class="st0" x1="606.4" y1="371.2" x2="606.4" y2="233.7"/>
<line class="st0" x1="610.2" y1="233.7" x2="610.2" y2="371.2"/>
<line class="st0" x1="614" y1="233.7" x2="614" y2="371.2"/>
<line class="st0" x1="617.8" y1="233.7" x2="617.8" y2="371.2"/>
<line class="st0" x1="621.6" y1="233.7" x2="621.6" y2="371.2"/>
<line class="st0" x1="625.6" y1="233.7" x2="625.6" y2="371.2"/>
<line class="st0" x1="509.2" y1="233.7" x2="509.2" y2="371.2"/>
<line class="st0" x1="513" y1="233.7" x2="513" y2="371.2"/>
<line class="st0" x1="505.2" y1="233.7" x2="505.2" y2="371.2"/>
<line class="st0" x1="516.8" y1="233.7" x2="516.8" y2="371.2"/>
<line class="st0" x1="520.6" y1="233.7" x2="520.6" y2="371.2"/>
<line class="st0" x1="524.6" y1="233.7" x2="524.6" y2="371.2"/>
<line class="st0" x1="606.4" y1="357.4" x2="524.4" y2="275.4"/>
<line class="st0" x1="606.4" y1="352" x2="524.4" y2="270.1"/>
<line class="st0" x1="606.4" y1="346.7" x2="524.4" y2="264.7"/>
<line class="st0" x1="606.4" y1="341.3" x2="524.4" y2="259.3"/>
<line class="st0" x1="606.4" y1="335.9" x2="524.4" y2="253.5"/>
<line class="st0" x1="606.4" y1="330.6" x2="524.4" y2="248.6"/>
<path class="st0" d="M758.7,321.5c-7.4,17.8-25,30.3-45.5,30.3c-27.2,0-49.3-22.1-49.3-49.3s22.1-49.3,49.3-49.3
	c20.5,0,38.1,12.5,45.5,30.3c0.5,1.2,1,2.5,1.4,3.8c0.4,1.2,0.8,2.5,1.1,3.8l-0.1-0.1c0.3,1.3,0.6,2.5,0.8,3.8
	c0.2,1.2,0.3,2.5,0.4,3.8c0.1,1.3,0.2,2.5,0.2,3.8"/>
<path class="st0" d="M762.8,321.5c-7.7,19.9-27,34.1-49.6,34.1c-29.3,0-53.1-23.8-53.1-53.1s23.8-53.1,53.1-53.1
	c22.6,0,42,14.1,49.6,34.1c0.5,1.2,0.9,2.5,1.3,3.8c0.4,1.2,0.7,2.5,1,3.8V291c0.3,1.2,0.5,2.5,0.7,3.8s0.3,2.5,0.4,3.8
	c0,1.3,0.1,2.5,0.1,3.8"/>
<path class="st0" d="M766.9,321.5c-7.8,22.1-28.8,37.9-53.6,37.9c-31.4,0-56.9-25.5-56.9-56.9s25.5-56.9,56.9-56.9
	c24.7,0,45.8,15.8,53.6,37.9c0.4,1.2,0.8,2.5,1.2,3.8H768c0.3,1.2,0.7,2.5,0.9,3.8l0.1-0.1c0.3,1.2,0.5,2.5,0.6,3.8
	c0.2,1.3,0.3,2.5,0.4,3.8c0,1.3,0.1,2.5,0.1,3.8"/>
<path class="st0" d="M770.8,321.5c-7.9,24.2-30.7,41.7-57.6,41.7c-33.5,0-60.7-27.2-60.7-60.7s27.2-60.7,60.7-60.7
	c26.9,0,49.7,17.5,57.7,41.7c0.4,1.2,0.8,2.5,1.1,3.8c0.3,1.2,0.6,2.5,0.8,3.8V291c0.2,1.3,0.4,2.5,0.6,3.8s0.3,2.5,0.4,3.8
	c0,1.3,0.1,2.5,0.1,3.8"/>
<path class="st0" d="M774.9,321.5c-8.1,26.4-32.6,45.5-61.6,45.5c-35.6,0-64.5-28.9-64.5-64.5s28.9-64.5,64.5-64.5
	c29,0,53.5,19.1,61.6,45.5c0.4,1.2,0.7,2.5,1,3.8s0.6,2.5,0.8,3.8l-0.1-0.1c0.3,1.3,0.5,2.5,0.6,3.8h0.1c0.1,1.3,0.2,2.5,0.3,3.8
	s0.1,2.5,0.1,3.8"/>
<path class="st0" d="M778.8,321.5c-8.2,28.5-34.5,49.3-65.6,49.3c-37.7,0-68.3-30.6-68.3-68.3s30.6-68.3,68.3-68.3
	c31.1,0,57.4,20.8,65.6,49.3c0.4,1.3,0.7,2.5,1,3.8s0.5,2.5,0.8,3.8V291c0.2,1.3,0.4,2.5,0.5,3.8s0.2,2.5,0.3,3.8s0.1,2.5,0.1,3.8"
	/>
<line class="st0" x1="107.7" y1="302.7" x2="60.4" y2="302.7"/>
<line class="st0" x1="60.5" y1="306.5" x2="107.8" y2="306.5"/>
<line class="st0" x1="107.8" y1="310.3" x2="60.8" y2="310.3"/>
<line class="st0" x1="107.8" y1="314.1" x2="61.4" y2="314.1"/>
<line class="st0" x1="107.8" y1="317.8" x2="62.1" y2="317.8"/>
<line class="st0" x1="63.1" y1="321.6" x2="107.8" y2="321.6"/>
<line class="st0" x1="734.2" y1="302.4" x2="781.5" y2="302.4"/>
<line class="st0" x1="781.4" y1="298.6" x2="734.1" y2="298.6"/>
<line class="st0" x1="734.1" y1="294.8" x2="781.1" y2="294.8"/>
<line class="st0" x1="734.1" y1="291" x2="780.5" y2="291"/>
<line class="st0" x1="734.1" y1="287.3" x2="779.8" y2="287.3"/>
<line class="st0" x1="778.8" y1="283.5" x2="734.1" y2="283.5"/>
<path class="st0" d="M83.2,283.6c7.4-17.8,25-30.3,45.5-30.3c27.2,0,49.3,22.1,49.3,49.3s-22.1,49.3-49.3,49.3
	c-20.5,0-38.1-12.5-45.5-30.3c-0.5-1.2-1-2.5-1.4-3.8c-0.4-1.2-0.8-2.5-1.1-3.8l0.1,0.1c-0.3-1.3-0.6-2.5-0.8-3.8
	c-0.2-1.2-0.3-2.5-0.4-3.8s-0.2-2.5-0.2-3.8"/>
<path class="st0" d="M79.1,283.6c7.7-19.9,27-34.1,49.6-34.1c29.3,0,53.1,23.8,53.1,53.1s-23.8,53.1-53.1,53.1
	c-22.6,0-42-14.1-49.6-34.1c-0.5-1.2-0.9-2.5-1.3-3.8c-0.4-1.2-0.7-2.5-1-3.8v0.1c-0.3-1.2-0.5-2.5-0.7-3.8s-0.3-2.5-0.4-3.8
	c0-1.3-0.1-2.5-0.1-3.8"/>
<path class="st0" d="M75,283.6c7.8-22.1,28.8-37.9,53.6-37.9c31.4,0,56.9,25.5,56.9,56.9s-25.5,56.9-56.9,56.9
	c-24.7,0-45.8-15.8-53.6-37.9c-0.4-1.2-0.8-2.5-1.2-3.8h0.1c-0.3-1.2-0.7-2.5-0.9-3.8l-0.1,0.1c-0.3-1.2-0.5-2.5-0.6-3.8
	c-0.2-1.3-0.3-2.5-0.4-3.8c0-1.3-0.1-2.5-0.1-3.8"/>
<path class="st0" d="M71.1,283.6c7.9-24.2,30.7-41.7,57.6-41.7c33.5,0,60.7,27.2,60.7,60.7s-27.2,60.7-60.7,60.7
	c-26.9,0-49.7-17.5-57.7-41.7c-0.4-1.2-0.8-2.5-1.1-3.8c-0.3-1.2-0.6-2.5-0.8-3.8v0.1c-0.2-1.3-0.4-2.5-0.6-3.8s-0.3-2.5-0.4-3.8
	c0-1.3-0.1-2.5-0.1-3.8"/>
<path class="st0" d="M67,283.6c8.1-26.4,32.6-45.5,61.6-45.5c35.6,0,64.5,28.9,64.5,64.5s-28.9,64.5-64.5,64.5
	c-29,0-53.5-19.1-61.6-45.5c-0.4-1.2-0.7-2.5-1-3.8s-0.6-2.5-0.8-3.8l0.1,0.1c-0.3-1.3-0.5-2.5-0.6-3.8h-0.1
	c-0.1-1.3-0.2-2.5-0.3-3.8c-0.1-1.3-0.1-2.5-0.1-3.8"/>
<path class="st0" d="M63.1,283.6c8.2-28.5,34.5-49.3,65.6-49.3c37.7,0,68.3,30.6,68.3,68.3s-30.6,68.3-68.3,68.3
	c-31.1,0-57.4-20.8-65.6-49.3c-0.4-1.3-2.7-17.6-2.7-18.9"/>
</svg>
