<?xml version="1.0" encoding="utf-8"?>
<!-- Generator: Adobe Illustrator 23.0.6, SVG Export Plug-In . SVG Version: 6.00 Build 0)  -->
<svg version="1.1" id="Calque_1" xmlns="http://www.w3.org/2000/svg" xmlns:xlink="http://www.w3.org/1999/xlink" x="0px" y="0px"
	 width="500px" height="500px" viewBox="-1 -1 500 500" style="enable-background:new 0 0 500 500;" xml:space="preserve">
<style type="text/css">
	.st0{fill:none;stroke:#000000;stroke-width:2;stroke-miterlimit:0;}
</style>
<g id="chapeau">
	<path class="st0" d="M170.1,141.5c-22.5,0.5-31.8-4.2-36.5,6c-4.9,10.4-5.3,35.6-8,39.4c-2.5,3.6-7.3-14.3-25.1-17.1
		c-18-2.7-48.9,9.6-71.4,5.6C6.8,171.3-7,150.7,3.7,136.2c10.9-14.3,46.3-22.5,68.5-27.1c22.2-4.5,30.9-5.4,38-31.1
		c7-25.5,12.3-75.6,18.8-78c6.7-2.2,14.5,43.2,33.2,62.1c18.5,19.1,47.9,11.3,66.7,18.2c18.9,6.7,27.2,28.3,13.4,41.8
		C228.5,135.7,192.6,141.1,170.1,141.5z"/>
</g>
</svg>
