<?xml version="1.0" encoding="utf-8"?>
<!-- Generator: Adobe Illustrator 23.0.1, SVG Export Plug-In . SVG Version: 6.00 Build 0)  -->
<svg version="1.1" id="Calque_1" xmlns="http://www.w3.org/2000/svg" xmlns:xlink="http://www.w3.org/1999/xlink" x="0px" y="0px"
	 width="477.1px" height="475px" viewBox="0 0 477.1 475" style="enable-background:new 0 0 477.1 475;" xml:space="preserve">
<style type="text/css">
	.st0{fill:#FFFFFF;}
</style>
<path class="st0" d="M34.1,343.4C12.2,317.1,5,280.8,5,235.4c0-69.9,29.2-128.1,76.8-171.5C123.2,26.3,178.6,5,238.5,5
	c70.4,0,124.3,21.6,167.1,71.5c35.7,41.6,66.4,99.4,66.4,158.8c0,43.2-7,76-27,101.8c-16.4,21.1-39.3,37.1-66.5,48.6
	c-0.3,25-3.5,52-31.1,67.7c-24.2,13.7-78.1,16.6-112.3,16.6c-44.4,0-88.8,0.7-114.3-20.8c-16.4-13.8-23.2-42.1-24.7-62.6
	C71.2,376.4,49.8,362.2,34.1,343.4L34.1,343.4z"/>
<path d="M407.7,115.5c-12.3,2.8-13,42.1-2.4,87.9c10.6,45.8,28.4,80.8,40.7,77.9c12.3-2.8,20-36.8,9.4-82.6
	C444.9,153,420,112.7,407.7,115.5L407.7,115.5z M34.1,343.4C12.2,317.1,5,280.8,5,235.4c0-69.9,29.2-128.1,76.8-171.5
	C123.2,26.3,178.6,5,238.5,5c70.4,0,124.3,21.6,167.1,71.5c35.7,41.6,66.4,99.4,66.4,158.8c0,43.2-7,76-27,101.8
	c-16.4,21.1-39.3,37.1-66.5,48.6c-0.3,25-3.5,52-31.1,67.7c-24.2,13.7-78.1,16.6-112.3,16.6c-44.4,0-88.8,0.7-114.3-20.8
	c-16.4-13.8-23.2-42.1-24.7-62.6C71.2,376.4,49.8,362.2,34.1,343.4L34.1,343.4z M30.5,275.8c12.2,3.3,31.3-31.1,43.4-76.5
	c12.2-45.4,12.8-84.7,0.6-87.9c-12.2-3.3-34.9,23.1-47.1,68.5S18.3,272.5,30.5,275.8L30.5,275.8z M127.5,434.1
	c22.3,14.7,65.2,17.2,105.9,17.2c45.1,0,95.1-0.2,118.3-19.7c13.7-11.5,14.5-43.9,14.5-58.8c0-6.2-1.6-15.4-6.2-21.2
	c-9.8-12.4-28.8-20.1-43.6-27c-23.1-10.8-40.9-12.5-77.8-12.5c-34.1,0-59.9,3.3-84.1,12.5c-19.4,7.4-42.9,18.8-49.8,31.1
	c-2.6,4.6,0,11.3,0,17C104.6,390.2,110.4,422.9,127.5,434.1L127.5,434.1z M187.7,414c-6.9,0-12.5-6.9-12.5-41.5
	c0-34.6,5.6-41.5,12.5-41.5c6.9,0,12.5,6.9,12.5,41.5C200.1,407,194.6,414,187.7,414z M287.3,414c-6.9,0-12.5-6.9-12.5-41.5
	c0-34.6,5.6-41.5,12.5-41.5c6.9,0,12.5,6.9,12.5,41.5C299.8,407,294.2,414,287.3,414z"/>
<circle id="circle" class="st0" cx="237.5" cy="150.3" r="112.1"/>
</svg>
