<?xml version="1.0" encoding="iso-8859-1"?>
<!-- Generator: Adobe Illustrator 17.1.0, SVG Export Plug-In . SVG Version: 6.00 Build 0)  -->
<!DOCTYPE svg PUBLIC "-//W3C//DTD SVG 1.1//EN" "http://www.w3.org/Graphics/SVG/1.1/DTD/svg11.dtd">
<svg version="1.1" id="Capa_1" xmlns="http://www.w3.org/2000/svg" xmlns:xlink="http://www.w3.org/1999/xlink" x="0px" y="0px"
	 viewBox="0 0 373.813 373.813" style="enable-background:new 0 0 373.813 373.813;" xml:space="preserve">
<path id="plume" d="M373.624,8.075l-0.708-3.713h-4.211c-4.654,0-113.298,34.544-132.973,54.22l-1.21,1.209l-4.292,33.868l-20.884-42.349
	l-4.363,1.883c-0.589,0.254-1.194,0.524-1.818,0.817c-4.522,2.12-18.984,12.949-33.303,26.985
	c-13.213,12.952-30.692,32.877-38.932,54.248c-1.964,5.093-3.312,15.031-4.186,24.056l-16.355-33.164l-4.893,6.405
	c-2.265,2.965-15.851,50.671-23.964,82.797c-11.669,46.212-14.909,68.751-14.967,80.195L1.963,360.137
	c-2.536,2.535-2.07,4.954-1.566,6.17c0.791,1.91,2.653,3.144,4.744,3.144c1.249,0,2.288-0.444,2.963-0.78l32.062-15.97
	c1.459-0.727,3.355-2.091,4.509-3.243l37.892-37.848c19.47-0.003,61.783-10.047,93.855-18.475
	c21.947-5.767,66.268-18.216,69.209-20.463l6.403-4.893l-33.162-16.354c9.023-0.874,18.962-2.222,24.055-4.186
	c21.371-8.239,41.296-25.719,54.248-38.932c14.035-14.317,24.865-28.779,26.986-33.303c0.296-0.631,0.566-1.236,0.819-1.825
	l1.873-4.359L284.51,147.94l33.87-4.293l1.209-1.21c8.575-8.574,20.312-33.161,34.885-73.076
	c6.416-17.576,11.372-32.706,13.756-40.16C374.082,10.896,374.108,9.65,373.624,8.075z"/>

</svg>
